<?xml version="1.0" encoding="UTF-8" standalone="no"?>
<!-- Creator: CorelDRAW -->

<svg
   xmlns:dc="http://purl.org/dc/elements/1.1/"
   xmlns:cc="http://creativecommons.org/ns#"
   xmlns:rdf="http://www.w3.org/1999/02/22-rdf-syntax-ns#"
   xmlns:svg="http://www.w3.org/2000/svg"
   xmlns="http://www.w3.org/2000/svg"
   xmlns:sodipodi="http://sodipodi.sourceforge.net/DTD/sodipodi-0.dtd"
   xmlns:inkscape="http://www.inkscape.org/namespaces/inkscape"
   xml:space="preserve"
   width="83.4534mm"
   height="40.039848mm"
   style="clip-rule:evenodd;fill-rule:evenodd;image-rendering:optimizeQuality;shape-rendering:geometricPrecision;text-rendering:geometricPrecision"
   viewBox="0 0 83.4534 40.039848"
   id="svg3971"
   version="1.1"
   inkscape:version="0.91 r13725"
   sodipodi:docname="logo.svg"><metadata
     id="metadata4065"><rdf:RDF><cc:Work
         rdf:about=""><dc:format>image/svg+xml</dc:format><dc:type
           rdf:resource="http://purl.org/dc/dcmitype/StillImage" /><dc:title /></cc:Work></rdf:RDF></metadata><sodipodi:namedview
     pagecolor="#ffffff"
     bordercolor="#666666"
     borderopacity="1"
     objecttolerance="10"
     gridtolerance="10"
     guidetolerance="10"
     inkscape:pageopacity="0"
     inkscape:pageshadow="2"
     inkscape:window-width="1366"
     inkscape:window-height="691"
     id="namedview4063"
     showgrid="false"
     fit-margin-top="0"
     fit-margin-left="0"
     fit-margin-right="0"
     fit-margin-bottom="0"
     inkscape:zoom="2.5371827"
     inkscape:cx="110.79303"
     inkscape:cy="41.942337"
     inkscape:window-x="1920"
     inkscape:window-y="24"
     inkscape:window-maximized="1"
     inkscape:current-layer="Слой_x0020_1" /><defs
     id="defs3973"><style
       type="text/css"
       id="style3975"><![CDATA[
    .fil16 {fill:#292680}
    .fil6 {fill:#2A1710}
    .fil2 {fill:#392833}
    .fil15 {fill:#423F99}
    .fil0 {fill:#710153}
    .fil3 {fill:#80145F}
    .fil1 {fill:#878787}
    .fil10 {fill:#C64995}
    .fil14 {fill:#D9D9D9}
    .fil9 {fill:#E691D5}
    .fil7 {fill:#F593C7}
    .fil4 {fill:#F7EEFF}
    .fil8 {fill:#FEFEFE}
    .fil5 {fill:white}
    .fil13 {fill:#710153;fill-rule:nonzero}
    .fil11 {fill:#D9D9D9;fill-rule:nonzero}
    .fil12 {fill:white;fill-rule:nonzero}
   ]]></style></defs><g
     id="Слой_x0020_1"
     transform="translate(-35.066118,-30.365822)"><metadata
       id="CorelCorpID_0Corel-Layer" /><path
       class="fil0"
       d="m 48.2021,45.6269 c -0.2454,-0.1338 -3.229,0.9828 -2.693,0.965 1.1686,-0.0389 2.16,1.175 2.0881,1.4903 -0.3009,1.3211 -0.3716,2.1599 0.1636,2.5846 0.0926,0.0736 0.2155,0.0855 0.4078,0.0062 2.9367,3.4814 6.5486,2.2282 15.1066,3e-4 0.764,-0.1988 0.3253,-2.343 -0.0235,-4.5697 0.285,-0.0588 0.5652,-0.1273 0.84,-0.2069 0.4328,0.0995 0.837,0.3135 1.2457,0.3859 l -0.306,-0.3621 c 0.5189,-0.0146 0.7397,0 1.2342,-0.2799 0.1157,-0.0656 0.2015,-0.1318 0.2974,-0.1938 l -0.5366,0.0611 c 0.3549,-0.2366 0.6434,-0.4461 0.8595,-0.7453 1.0255,-0.4995 1.6269,-1.0127 1.5583,-1.4001 0.5797,-0.4787 0.9076,-1.4457 0.9278,-2.5161 0.0223,-0.0427 0.0413,-0.0819 0.0543,-0.1148 l 0.1579,-0.9878 0.2452,0.4704 c 0.2936,-0.42 0.0431,-1.4431 -0.2597,-1.8853 l -0.3401,-0.4473 0.3754,0.1781 c 0.0977,-0.3636 -0.525,-0.9481 -0.7414,-1.0582 l -1.3511,-0.4612 c 0.2532,-0.2333 0.6568,-0.4627 0.9516,-0.642 -1.1235,-0.4283 -4.1219,0.7913 -5.1586,1.0688 -0.279,-0.1012 0.7509,-2.5288 0.4395,-2.7526 0.3132,-0.0149 -0.7601,-0.4117 -0.3873,-0.3856 l 0.1802,-0.1146 c 0.0887,-0.1116 -0.8074,-0.4336 0.7328,-0.5316 L 64.5874,33.181 C 64.5821,33.1409 64.531,33.0978 64.4393,33.0536 l 0.7091,-0.0044 c -0.9089,0.0264 -5.1162,-0.5263 -3.0198,-1.9925 0.1858,-0.13 -1.3769,0.3443 -1.8165,1.0667 -0.3404,1.5485 -1.1917,1.5618 -1.4671,0.1864 -0.0095,-0.0475 -0.0965,0.0062 -0.1446,0 -0.0133,-0.0169 -0.0261,-0.035 -0.0383,-0.0546 -0.4396,-0.7225 -2.0008,-1.1997 -1.8165,-1.0668 0.8174,0.5901 0.3152,1.0202 -0.501,1.3315 -0.6076,0.0829 -1.5829,0.68 -1.6342,0.7005 l 1.3549,-0.1347 c -0.3882,0.1677 -1.4369,0.6601 -1.5025,1.1887 2.0985,-0.0181 0.9709,2.2846 0.9115,2.2837 -0.4333,-0.0065 -2.7686,-0.3844 -3.1254,-0.2796 -0.6218,-0.2087 -1.382,-0.4227 -1.8387,-0.2484 0.2947,0.1789 0.6984,0.4087 0.9515,0.642 l -1.3511,0.4609 c -0.2163,0.1101 -0.839,0.6949 -0.7414,1.0585 l 0.3755,-0.1784 -0.3402,0.4473 c -1.2694,1.56 -0.1888,4.743 2.4217,6.7623 2.2267,1.7224 2.1914,3.5751 -3.6241,0.4042 z"
       id="path3979"
       inkscape:connector-curvature="0"
       style="fill:#710153" /><path
       class="fil1"
       d="m 61.3816,39.0996 c 0.7936,1.8616 -0.0808,2.3001 -1.1596,2.1997 -0.0448,-0.0042 -0.1793,-0.1888 -0.2197,-0.1673 -0.4374,0.2339 -2.3129,-0.6729 -2.1535,-0.9225 l 0.097,-0.8065 0.1795,-0.3034 c -1.9643,-1.0259 -5.0306,-2.6158 -6.4406,-0.4518 -0.4051,0.6218 -0.5315,1.4198 -0.4539,2.2958 0.0726,0.8186 0.3508,1.4863 0.7318,2.0236 1.4718,2.0757 4.1773,3.2666 7.7909,3.2666 3.6134,0 6.319,-1.1908 7.7908,-3.2666 0.8419,-1.1873 1.0561,-3.125 0.2779,-4.3194 -1.3857,-2.1268 -4.8513,-0.2647 -6.4406,0.4518 z"
       id="path3981"
       inkscape:connector-curvature="0"
       style="fill:#878787" /><polygon
       class="fil2"
       points="49.4024,39.9542 49.3327,39.9851 49.3897,39.8753 "
       id="polygon3983"
       style="fill:#392833" /><path
       class="fil3"
       d="m 57.2957,34.4828 c -0.6235,0.079 -0.9793,0.2321 -1.439,0.6307 -0.8471,0.7347 -1.5134,1.6827 -0.3684,2.5178 0.2517,0.1836 1.1616,0.513 1.4837,0.5619 2.5942,0.3944 3.5277,-4.1161 0.3237,-3.7104 z"
       id="path3985"
       inkscape:connector-curvature="0"
       style="fill:#80145f" /><path
       class="fil4"
       d="m 61.3816,39.0996 c 0.0686,0.1708 0.2639,0.3447 0.1463,0.7468 -0.2337,0.7992 -0.9255,1.0465 -1.6071,1.2898 l 0.0424,1.7613 c 1.4556,-0.0347 3.1115,-0.5357 4.1235,-1.1606 1.4525,-0.897 1.5874,-1.5737 2.2931,-3.0267 -0.5358,0.0242 -0.7452,0.2554 -1.0602,0.5512 0.0871,-0.4105 0.5332,-0.7754 1.0074,-0.8297 0.2916,-0.0333 0.5415,0.0344 0.7413,0.168 l 0.4071,0.5121 -0.536,-0.2931 c 0.1721,0.3286 0.2146,1.0867 0.1711,1.506 -0.101,0.9728 -0.5373,1.6685 -1.1517,2.327 -0.2273,0.2436 -0.6763,0.6206 -0.9294,0.8081 -3.073,2.277 -7.4577,2.2821 -10.5391,0.0095 -0.2807,-0.2071 -0.4597,-0.3683 -0.706,-0.5864 -0.3214,-0.2845 -0.7529,-0.8001 -0.9706,-1.2127 -0.3124,-0.605 -0.3893,-2.1881 -0.2967,-2.8128 0.0566,-0.3819 -0.4745,0.2094 -0.7262,0.4951 0.0582,-0.2203 0.4723,-0.6314 0.6347,-0.7436 0.7821,-0.4711 1.2194,-0.4116 1.9026,-0.2733 -1.1816,-0.0975 -1.2295,0.2742 -1.2166,0.3351 0.1342,0.6488 0.5867,1.4679 0.9081,1.8607 1.3573,1.6585 3.5188,2.1522 5.7209,2.3734 -0.0969,-0.7918 -0.0585,-0.9887 -0.0207,-1.7683 -0.9749,0.0127 -1.9517,-1.1224 -1.7561,-1.69 l 0.1616,-0.3469 c -1.9643,-1.0259 -5.0306,-2.6158 -6.4406,-0.4518 -0.4051,0.6218 -0.5315,1.4198 -0.4539,2.2958 0.0726,0.8186 0.3508,1.4863 0.7318,2.0236 1.4718,2.0757 4.1773,3.2666 7.7909,3.2666 3.6134,0 6.319,-1.1908 7.7908,-3.2666 0.8419,-1.1873 1.0561,-3.125 0.2779,-4.3194 -1.3857,-2.1268 -4.8513,-0.2647 -6.4406,0.4518 z"
       id="path3987"
       inkscape:connector-curvature="0"
       style="fill:#f7eeff" /><path
       class="fil5"
       d="m 57.4477,34.9232 c -0.4879,0.0618 -0.7663,0.1816 -1.126,0.4935 -0.6629,0.575 -1.1843,1.3167 -0.2883,1.9703 0.197,0.1436 0.909,0.4013 1.161,0.4397 2.03,0.3085 2.7605,-3.2209 0.2533,-2.9035 z"
       id="path3989"
       inkscape:connector-curvature="0"
       style="fill:#ffffff" /><path
       class="fil6"
       d="m 57.7126,36.3152 c -0.6144,0.2131 -0.297,1.1982 0.2823,0.9956 0.5584,-0.1952 0.3191,-1.2042 -0.2823,-0.9956 z"
       id="path3991"
       inkscape:connector-curvature="0"
       style="fill:#2a1710" /><path
       class="fil3"
       d="m 62.3686,34.412 c 0.6235,0.079 0.9793,0.2321 1.439,0.6308 0.8471,0.7346 1.5134,1.6826 0.3684,2.5178 -0.2517,0.1835 -1.1616,0.5129 -1.4837,0.5619 -2.5942,0.3943 -3.5277,-4.1162 -0.3237,-3.7105 z"
       id="path3993"
       inkscape:connector-curvature="0"
       style="fill:#80145f" /><path
       class="fil5"
       d="m 61.9716,34.8524 c 0.4879,0.0618 0.7664,0.1816 1.126,0.4936 0.6629,0.5749 1.1843,1.3167 0.2883,1.9702 -0.1969,0.1436 -0.909,0.4014 -1.161,0.4397 -2.03,0.3085 -2.7604,-3.2209 -0.2533,-2.9035 z"
       id="path3995"
       inkscape:connector-curvature="0"
       style="fill:#ffffff" /><path
       class="fil6"
       d="m 62.1564,36.3538 c 0.6778,0.2351 0.3276,1.322 -0.3116,1.0986 -0.616,-0.2154 -0.352,-1.3287 0.3116,-1.0986 z"
       id="path3997"
       inkscape:connector-curvature="0"
       style="fill:#2a1710" /><path
       class="fil7"
       d="m 59.6568,38.6601 c -1.2438,0.1289 -2.0951,0.9671 -0.8061,1.8969 1.2712,0.917 2.4308,-0.3956 2.4592,-0.9049 0.0359,-0.6459 -1.1439,-1.0448 -1.6531,-0.992 z"
       id="path3999"
       inkscape:connector-curvature="0"
       style="fill:#f593c7" /><path
       class="fil8"
       d="m 66.585,41.1839 c 0.0249,-0.0249 0.013,-0.0071 0.0371,-0.0472 0.0495,-0.0819 0.132,-0.3876 0.1516,-0.4769 0.0431,-0.1959 0.0775,-0.4156 0.084,-0.626 L 66.7176,38.7501 66.593,38.7263 c -0.0039,0.0059 -0.008,0.0083 -0.0092,0.0193 -0.0122,0.0932 -0.1194,0.4989 -0.152,0.5913 -0.1431,0.4036 -0.1914,0.3092 -0.0932,0.5497 0.154,0.3769 0.2514,0.8438 0.2464,1.2973 z m -13.6629,0 c -0.0051,-0.4505 0.0902,-0.9076 0.2398,-1.2813 0.0495,-0.1235 0.0878,-0.1407 0.0285,-0.2793 -0.0401,-0.0938 -0.0736,-0.1704 -0.1096,-0.2698 -0.1118,-0.3108 -0.1151,-0.5097 -0.1668,-0.6272 l -0.157,0.1178 c -0.1321,0.3711 -0.143,1.2615 -0.0276,1.7975 0.0169,0.079 0.106,0.4076 0.1458,0.4791 0.0338,0.0611 0.0145,0.0309 0.0469,0.0632 z m 0.9898,1.3915 c -0.116,-0.5352 -0.1695,-0.9466 -0.0976,-1.5325 0.0638,-0.5227 0.0555,-0.203 -0.3218,-0.831 l -0.165,-0.2817 c -0.1161,0.2918 -0.333,1.249 -0.2487,1.5879 0.0558,0.2247 0.7076,0.9884 0.8331,1.0573 z m 1.2413,0.9709 -0.2591,-1.8424 c -0.1757,-0.1531 -0.328,-0.2401 -0.4874,-0.401 -0.0798,-0.0804 -0.1502,-0.1317 -0.2306,-0.2151 L 53.9698,40.866 c -0.0935,0.5174 6e-4,1.2953 0.1223,1.7762 0.0591,0.2336 0.217,0.3045 0.4764,0.504 0.1193,0.0917 0.4532,0.3502 0.5847,0.4001 z m 1.3962,0.7168 C 56.4942,44.0464 56.36,43.8042 56.3114,43.4522 l -0.0858,-0.9908 c -6e-4,-6e-4 -0.7474,-0.3796 -0.9127,-0.4829 l -0.3004,-0.1861 c 0.0089,0.5515 0.141,1.2282 0.3048,1.6969 0.0576,0.1647 0.0493,0.2089 0.2004,0.2891 0.2923,0.1558 0.7177,0.3995 1.0317,0.4847 z m 2.1561,0.5158 c -0.0398,-0.1071 -0.1119,-0.2196 -0.1606,-0.3517 -0.1668,-0.4515 -0.1665,-0.8536 -0.2188,-1.3647 l -1.9494,-0.5468 c -0.0268,0.3417 0.2796,1.6304 0.4437,1.8317 0.122,0.1498 1.5743,0.4164 1.8851,0.4315 z m 1.8723,0.0214 0.4642,-1.7123 c -1.6031,0.114 -0.9739,0.114 -2.577,0 0.0285,0.5538 0.1906,1.1184 0.3877,1.5666 0.0872,0.1991 0.0786,0.154 0.3217,0.1691 0.4087,0.0256 1.0169,0.0425 1.4034,-0.0234 z m 0.6031,-1.7378 c 0.0032,0.7512 -0.0992,1.0967 -0.3793,1.7164 0.3125,-0.0151 1.736,-0.2814 1.8746,-0.4197 l 0.4541,-1.8435 c -0.5853,0.2538 -1.2653,0.4185 -1.9494,0.5468 z m 2.1005,-0.6011 c -0.0021,0.3559 -0.0181,0.6298 -0.0822,0.9721 -0.0677,0.3618 -0.1252,0.4956 -0.2419,0.8296 0.3289,-0.0891 0.7165,-0.32 1.0172,-0.477 0.1653,-0.0861 0.1534,-0.1202 0.2152,-0.2968 l 0.3048,-1.6969 -0.5815,0.3505 c -0.1077,0.0627 -0.1976,0.1009 -0.3098,0.1588 -0.0873,0.0445 -0.2568,0.1095 -0.3218,0.1597 z m 1.3315,-0.7575 -0.2591,1.8424 c 0.1831,-0.0698 0.8272,-0.58 0.97,-0.7059 l 0.2475,-1.4932 -0.0341,-0.4812 c -0.0246,0.0318 -0.07,0.0695 -0.1003,0.1042 -0.1553,0.1769 -0.1986,0.1935 -0.3369,0.3327 -0.1594,0.1609 -0.3117,0.2479 -0.4871,0.401 z m 0.9822,0.8715 c 0.1273,-0.0701 0.7566,-0.8121 0.8281,-1.0401 l -0.244,-1.6051 c -0.0561,0.0804 -0.103,0.1813 -0.1561,0.268 -0.4016,0.6548 -0.3945,0.3488 -0.333,0.8248 0.0762,0.5901 0.0216,1.0131 -0.095,1.5524 z"
       id="path4001"
       inkscape:connector-curvature="0"
       style="fill:#fefefe" /><path
       class="fil1"
       d="m 61.7499,45.4326 c -0.8676,0.2073 -1.5124,0.2595 -1.9287,0.2608 -0.6738,0.002 -1.3422,-0.0314 -2.0642,-0.2608 0.7805,0.4412 1.458,0.4914 2.1042,0.4997 0.6188,0.0079 1.149,-0.2641 1.8887,-0.4997 z"
       id="path4003"
       inkscape:connector-curvature="0"
       style="fill:#878787" /><path
       class="fil3"
       d="m 60.6028,40.0218 c -0.6332,0.1603 -0.8439,1.0039 -0.267,0.8632 0.197,-0.0481 0.4269,-0.2835 0.517,-0.412 0.1578,-0.2251 0.0615,-0.5301 -0.25,-0.4512 z"
       id="path4005"
       inkscape:connector-curvature="0"
       style="fill:#80145f" /><path
       class="fil3"
       d="m 58.7865,40.1037 c -0.5148,0.1395 0.2111,0.9096 0.551,0.7954 0.4395,-0.1478 -0.1988,-0.8907 -0.551,-0.7954 z"
       id="path4007"
       inkscape:connector-curvature="0"
       style="fill:#80145f" /><path
       class="fil1"
       d="m 61.8852,40.7295 c 1.3251,-0.2932 1.1735,-0.2574 2.5316,-0.4026 -0.2236,0.0043 -0.8456,-0.2893 -1.9645,0.1321 -0.1721,0.0648 -0.4796,0.2473 -0.5671,0.2705 z"
       id="path4009"
       inkscape:connector-curvature="0"
       style="fill:#878787" /><path
       class="fil1"
       d="m 62.1439,40.1865 c 0.3772,-0.2355 0.7095,-0.4261 1.1779,-0.6399 0.4467,-0.2038 0.9186,-0.3788 1.379,-0.5559 -1.899,0.2402 -2.2678,1.0678 -2.5569,1.1958 z"
       id="path4011"
       inkscape:connector-curvature="0"
       style="fill:#878787" /><path
       class="fil1"
       d="m 57.7271,40.7912 c -1.3252,-0.2932 -1.1736,-0.2574 -2.5316,-0.4026 0.2235,0.0042 0.8456,-0.2894 1.9645,0.1321 0.1721,0.0648 0.4796,0.2473 0.5671,0.2705 z"
       id="path4013"
       inkscape:connector-curvature="0"
       style="fill:#878787" /><path
       class="fil1"
       d="m 57.4683,40.2482 c -0.3772,-0.2355 -0.7094,-0.4261 -1.1779,-0.6399 -0.4467,-0.2038 -0.9186,-0.3788 -1.3789,-0.5559 1.899,0.2402 2.2677,1.0678 2.5568,1.1958 z"
       id="path4015"
       inkscape:connector-curvature="0"
       style="fill:#878787" /><path
       class="fil9"
       d="m 62.0023,30.8441 c 0.2572,0 0.4658,0.4655 0.4658,1.0397 0,0.5743 -0.2086,1.0397 -0.4658,1.0397 -0.2573,0 -0.4659,-0.4654 -0.4659,-1.0397 0,-0.5742 0.2086,-1.0397 0.4659,-1.0397 z"
       id="path4017"
       inkscape:connector-curvature="0"
       style="fill:#e691d5" /><path
       class="fil9"
       d="m 57.0214,30.9361 c -0.2572,0 -0.4658,0.4655 -0.4658,1.0397 0,0.5743 0.2086,1.0398 0.4658,1.0398 0.2573,0 0.4659,-0.4655 0.4659,-1.0398 0,-0.5742 -0.2086,-1.0397 -0.4659,-1.0397 z"
       id="path4019"
       inkscape:connector-curvature="0"
       style="fill:#e691d5" /><path
       class="fil0"
       d="m 57.4307,32.4731 -0.7867,0.0735 c 0.0499,-1.1433 0.228,-1.5883 0.4007,-1.6156 0.0923,-0.0146 0.437,0.6617 0.386,1.5421 z m -0.7081,-1.7757 c 0.1857,-0.3107 0.3202,-0.4477 0.6982,-0.2139 0.3149,0.1946 0.659,0.552 0.8887,0.8402 0.2799,0.351 0.4738,0.6522 0.7211,1.0345 0.139,0.2149 0.3026,0.4915 0.4192,0.7415 0.065,0.1395 0.1067,0.2386 0.1381,0.327 0.5868,-0.1177 -4.9778,1.9478 -3.4972,-0.3818 0.3725,-0.5861 0.1489,-1.5865 0.6319,-2.3475 z"
       id="path4021"
       inkscape:connector-curvature="0"
       style="fill:#710153" /><path
       class="fil0"
       d="m 61.8598,32.698 0.4385,-0.1147 c -0.0696,-0.7676 -0.1206,-0.8968 -0.4078,-1.612 -0.1848,0.4273 -0.0897,1.2646 -0.0307,1.7267 z m 0.3599,-1.964 c -0.1857,-0.3106 -0.3202,-0.4477 -0.6982,-0.2139 -0.315,0.1947 -0.659,0.552 -0.8887,0.8402 -0.2799,0.3511 -0.4738,0.6523 -0.7211,1.0346 -0.139,0.2148 -0.3026,0.4914 -0.4192,0.7414 -0.065,0.1395 -0.1067,0.2386 -0.1382,0.3271 -0.5867,-0.1177 4.9779,1.9477 3.4973,-0.3818 -0.3725,-0.5862 -0.1489,-1.5866 -0.6319,-2.3476 z"
       id="path4023"
       inkscape:connector-curvature="0"
       style="fill:#710153" /><path
       class="fil6"
       d="m 63.4294,34.9103 c -1.7011,-1.1704 -2.7133,0.0454 -2.7625,-0.3782 -0.0176,-0.1575 0.0286,-0.2719 0.0902,-0.3879 0.4568,-0.8613 2.3412,-0.484 2.6723,0.7661 z"
       id="path4025"
       inkscape:connector-curvature="0"
       style="fill:#2a1710" /><path
       class="fil10"
       d="m 105.568,49.2442 c 0.0146,-0.0059 0.029,-0.0117 0.0436,-0.0174 0.4526,-0.1779 0.9287,-0.2873 1.4159,-0.2993 0.1154,-0.0028 0.2309,0 0.3459,0.0089 0.6399,-0.4063 1.3902,-0.6996 2.1556,-0.6739 0.1065,0.0037 0.2124,0.014 0.317,0.0316 0.0438,-0.0651 0.1052,-0.1385 0.2135,-0.271 l 0.1312,-0.1604 0.1726,-0.1149 c 0.2401,-0.1598 0.4565,-0.2163 0.7075,-0.2305 0.0433,-0.2116 0.089,-0.4227 0.1393,-0.6328 0.0567,-0.2367 0.1224,-0.4717 0.2064,-0.7004 0.1726,-0.4697 0.4553,-0.8546 0.935,-1.0426 0.7683,-0.301 1.6653,-0.5002 2.485,-0.3181 0.9443,0.21 1.5838,0.9065 1.7084,1.858 0.5285,-0.0359 1.0353,0.1808 1.3377,0.6671 0.4131,0.6643 0.7204,1.4452 0.6166,2.2409 -0.1178,0.9042 -0.7214,1.5613 -1.5732,1.8495 -0.2809,0.095 -0.5721,0.1585 -0.8643,0.2063 -0.2842,0.0463 -0.5706,0.0772 -0.8575,0.1002 -0.0303,0.1405 -0.0587,0.2813 -0.085,0.4226 -0.0815,0.4358 -0.1496,0.8745 -0.1932,1.3159 -0.0246,0.2489 -0.0422,0.4989 -0.0495,0.749 0.1984,-0.1726 0.4172,-0.3211 0.6576,-0.4294 0.3679,-0.166 0.7694,-0.2367 1.1684,-0.1542 0.602,0.1244 1.07,0.567 1.2192,1.1645 0.1133,0.4541 0.0162,0.9037 -0.2041,1.3087 -0.1699,0.3126 -0.4119,0.5798 -0.6747,0.8169 -0.3843,0.347 -0.798,0.6616 -1.2374,0.9358 -0.4378,0.2733 -0.9054,0.498 -1.4003,0.6467 -0.5199,0.1562 -1.0661,0.2119 -1.6059,0.1502 -0.5013,-0.0574 -0.9712,-0.2274 -1.3664,-0.5257 -0.1153,0.0588 -0.2324,0.1138 -0.3511,0.1652 -0.3317,0.1433 -0.6787,0.2492 -1.034,0.3149 -0.4054,0.0747 -0.819,0.0798 -1.2252,0.0081 -0.4748,-0.0839 -0.9264,-0.2464 -1.329,-0.5069 -0.0619,0.0389 -0.1247,0.0766 -0.1883,0.1128 -0.3131,0.179 -0.6496,0.3077 -1.0011,0.3873 -0.3767,0.0854 -0.7672,0.1002 -1.1506,0.0571 -0.6121,-0.0687 -1.1813,-0.2883 -1.6654,-0.6721 -0.1018,-0.0807 -0.1982,-0.1674 -0.2892,-0.2596 -0.0266,0.0145 -0.0533,0.0287 -0.0801,0.0428 -0.4938,0.2594 -1.0194,0.4522 -1.5597,0.5888 -0.6027,0.1523 -1.2247,0.2207 -1.8457,0.2207 -0.6442,0 -1.2895,-0.0828 -1.9038,-0.2807 -0.5657,-0.1823 -1.0971,-0.4513 -1.5647,-0.8195 -0.4414,-0.3475 -0.819,-0.7629 -1.1201,-1.2372 -0.2891,-0.4554 -0.5097,-0.9485 -0.6635,-1.4653 -0.1522,-0.5112 -0.245,-1.0389 -0.2828,-1.5708 -0.0377,-0.5317 -0.0269,-1.0664 0.0294,-1.5964 0.0893,-0.8388 0.2502,-1.6728 0.5125,-2.4752 0.2342,-0.7165 0.5384,-1.4118 0.9314,-2.0559 0.3601,-0.5903 0.7834,-1.1419 1.2787,-1.6252 0.4599,-0.4491 0.9701,-0.845 1.5285,-1.1642 0.5296,-0.3026 1.0933,-0.5419 1.6827,-0.6999 0.569,-0.1525 1.1539,-0.2339 1.7433,-0.2319 0.4405,0.0015 0.8782,0.0679 1.2967,0.2065 0.3805,0.1261 0.7436,0.2985 1.0762,0.5227 0.3124,0.2103 0.5983,0.4574 0.8476,0.7398 0.2348,0.2661 0.4381,0.56 0.5969,0.8776 0.1634,0.327 0.278,0.676 0.3208,1.0398 0.0633,0.54 0.0524,1.0946 -0.0918,1.6214 -0.0826,0.3025 -0.2016,0.5905 -0.3635,0.8531 z m -3.4057,5.0017 c 0.0446,-0.4658 0.1395,-0.9269 0.2702,-1.3758 0.1703,-0.5844 0.4215,-1.1421 0.7613,-1.6479 0.1752,-0.2607 0.3695,-0.5077 0.5836,-0.7362 -0.4078,0.0788 -0.823,0.066 -1.2297,-0.0294 -0.4758,-0.1116 -0.916,-0.3176 -1.2966,-0.6257 -0.4309,-0.3488 -0.5643,-0.8338 -0.5222,-1.3682 0.012,-0.1514 0.0273,-0.3025 0.0435,-0.4534 0.004,-0.0345 0.007,-0.069 0.0102,-0.1036 -0.0447,0.0864 -0.0868,0.1731 -0.1266,0.2585 -0.2032,0.4368 -0.3507,0.9049 -0.4719,1.3705 -0.1647,0.6315 -0.2629,1.2827 -0.3336,1.9308 -0.0514,0.4719 -0.0802,0.9525 -0.0511,1.427 0.0183,0.2967 0.0686,0.6045 0.1816,0.8808 0.0658,0.161 0.157,0.2968 0.2914,0.4082 0.1715,0.1421 0.4005,0.2256 0.6148,0.2762 0.1617,0.0382 0.3265,0.0485 0.4918,0.0303 0.1876,-0.0207 0.3708,-0.0659 0.5463,-0.1356 0.0805,-0.032 0.1597,-0.0674 0.237,-0.1065 z M 68.3519,49.4735 c 0.015,-0.0807 0.0302,-0.1615 0.0455,-0.2421 0.0761,-0.4011 0.1585,-0.8011 0.2418,-1.2007 0.0804,-0.385 0.1677,-0.7684 0.2573,-1.1514 0.0786,-0.3358 0.1631,-0.6702 0.2541,-1.0029 0.074,-0.271 0.1538,-0.5411 0.2542,-0.8037 0.1791,-0.4684 0.4351,-0.8578 0.9137,-1.0619 0.7518,-0.3204 1.6378,-0.5607 2.4572,-0.4149 0.9701,0.1728 1.6484,0.8632 1.7984,1.8379 0.1189,0.7721 -0.1071,1.5913 -0.3887,2.3058 -0.0823,0.2091 -0.1623,0.4192 -0.2399,0.6301 0.2919,-0.0354 0.5872,-0.0365 0.8797,0.0092 0.3565,0.0556 0.691,0.1781 0.9868,0.3689 -0.0359,-0.2125 -0.0361,-0.4328 0.002,-0.6555 0.0883,-0.516 0.3701,-0.9519 0.7447,-1.3084 0.3421,-0.3257 0.7565,-0.5714 1.1789,-0.778 0.1316,-0.0645 0.2627,-0.1294 0.3971,-0.1877 0.1978,-0.0859 0.4025,-0.1546 0.6133,-0.2004 0.3028,-0.0658 0.6122,-0.0697 0.9162,-0.0087 0.3824,0.0769 0.7227,0.2662 1.0035,0.5349 0.2672,0.2558 0.4589,0.5745 0.596,0.916 0.1029,0.2568 0.1678,0.525 0.188,0.7967 0.2811,-0.0366 0.5647,-0.047 0.8498,-0.0144 0.5356,0.061 1.0366,0.2571 1.4331,0.6293 0.0889,0.0834 0.1699,0.1737 0.2426,0.2699 0.4852,-0.2194 1.0095,-0.3513 1.5451,-0.3201 0.5864,0.0342 1.1271,0.2478 1.5507,0.6601 0.1664,0.1619 0.304,0.3441 0.414,0.5417 0.0644,-0.0391 0.1296,-0.077 0.1955,-0.1137 0.4062,-0.2264 0.8355,-0.4111 1.2827,-0.5393 0.4437,-0.1273 0.9054,-0.1987 1.3675,-0.1874 0.4925,0.012 0.9713,0.1213 1.4112,0.3458 0.4984,0.2542 0.8921,0.6487 1.1578,1.1401 0.2773,0.513 0.3763,1.0855 0.3217,1.6638 -0.0252,0.2678 -0.0797,0.5299 -0.1588,0.7847 0.6266,0.1389 1.1116,0.6841 1.1663,1.3901 0.033,0.4243 -0.0906,0.8345 -0.2601,1.2181 -0.1633,0.3697 -0.3921,0.704 -0.6584,1.0068 -0.2585,0.294 -0.5482,0.5591 -0.8567,0.7995 -0.3133,0.2439 -0.6446,0.4639 -0.9908,0.6583 -0.346,0.1944 -0.7053,0.3651 -1.0758,0.5075 -0.3686,0.1416 -0.7499,0.2508 -1.1386,0.3215 -0.3946,0.0717 -0.7992,0.0964 -1.1987,0.0542 -0.6242,-0.0661 -1.2217,-0.2605 -1.7494,-0.6037 -0.5275,-0.3428 -0.9415,-0.8076 -1.23,-1.366 -0.2909,-0.5632 -0.4293,-1.1829 -0.4572,-1.8138 -0.0075,-0.1674 -0.0066,-0.335 0.0017,-0.5023 -0.0515,7e-4 -0.103,0 -0.1545,-0.0021 -0.2566,-0.0108 -0.5091,-0.0487 -0.7494,-0.138 -0.0905,0.1811 -0.1717,0.3671 -0.2447,0.556 -0.1026,0.2655 -0.1868,0.5388 -0.2453,0.8176 -0.047,0.224 -0.064,0.4522 -0.0591,0.681 0,0.0019 1e-4,0.0038 1e-4,0.0057 0.0039,0.0187 0.008,0.0376 0.012,0.0563 0.0208,0.0973 0.0343,0.1948 0.0489,0.293 0.0819,0.5528 -0.1382,1.0934 -0.5581,1.4559 -0.2283,0.1969 -0.4967,0.3361 -0.7809,0.4331 -0.2616,0.0894 -0.5339,0.1401 -0.8097,0.1591 -0.3052,0.0208 -0.6133,-0.0032 -0.9111,-0.0739 -0.1861,-0.0443 -0.3658,-0.109 -0.5363,-0.1937 -0.2611,0.0894 -0.529,0.1582 -0.8013,0.2037 -0.3692,0.0615 -0.7448,0.073 -1.1167,0.0311 -0.3948,-0.0446 -0.779,-0.1495 -1.13,-0.3301 -0.3472,0.1599 -0.7161,0.265 -1.0945,0.3215 -0.4456,0.0665 -0.8971,0.0497 -1.3401,-0.0292 -0.6759,-0.1202 -1.2954,-0.4021 -1.7929,-0.8809 -0.0585,-0.0565 -0.1144,-0.1148 -0.1675,-0.1748 -0.0622,0.1115 -0.137,0.2169 -0.2234,0.3143 -0.2072,0.2337 -0.4648,0.411 -0.7479,0.5407 -0.2681,0.1227 -0.5543,0.196 -0.8468,0.2298 -0.3397,0.0392 -0.6782,0.0082 -1.0088,-0.0763 -0.3971,-0.1015 -0.7617,-0.2868 -1.0732,-0.5538 -0.1303,-0.1117 -0.2348,-0.2379 -0.3182,-0.3755 -0.002,0.0014 -0.0039,0.0027 -0.0058,0.0041 -0.4594,0.3188 -0.9615,0.5703 -1.493,0.7446 -0.508,0.1666 -1.0344,0.2668 -1.5687,0.2919 -0.5168,0.0241 -1.0374,-0.0217 -1.5401,-0.1459 -0.5061,-0.1249 -0.9846,-0.3323 -1.4139,-0.6291 -0.1227,-0.0849 -0.2397,-0.177 -0.3503,-0.2765 -0.0805,0.049 -0.1618,0.0967 -0.244,0.1429 -0.3462,0.1947 -0.7057,0.3654 -1.0765,0.5077 -0.3684,0.1413 -0.7496,0.2507 -1.1381,0.3214 -0.3945,0.0717 -0.7991,0.0964 -1.1984,0.0542 -0.5252,-0.0557 -1.0319,-0.2015 -1.4935,-0.4512 -0.047,0.0256 -0.0944,0.0502 -0.1422,0.0739 -0.3749,0.1859 -0.7769,0.3058 -1.1905,0.3677 -0.4456,0.0666 -0.8972,0.0497 -1.3402,-0.0292 -0.6758,-0.1202 -1.2953,-0.4021 -1.7928,-0.8809 -0.0586,-0.0565 -0.1145,-0.1148 -0.1677,-0.1749 -0.0619,0.1114 -0.1369,0.2169 -0.2231,0.3143 -0.2073,0.2337 -0.465,0.4111 -0.748,0.5408 -0.2681,0.1228 -0.5543,0.1958 -0.8469,0.2298 -0.3395,0.0392 -0.6783,0.0082 -1.009,-0.0763 -0.397,-0.1015 -0.7616,-0.2869 -1.073,-0.5538 -0.1017,-0.0871 -0.1883,-0.1839 -0.2616,-0.2889 -0.032,0.0174 -0.0642,0.0346 -0.0964,0.0515 -0.4938,0.2593 -1.0193,0.4524 -1.5595,0.5888 -0.6026,0.1523 -1.2247,0.2207 -1.8457,0.2207 -0.6443,0 -1.2895,-0.0828 -1.9039,-0.2807 -0.5657,-0.1823 -1.0969,-0.4512 -1.5647,-0.8195 -0.4412,-0.3474 -0.8191,-0.7631 -1.1201,-1.2372 -0.2891,-0.4554 -0.5097,-0.9485 -0.6635,-1.4653 -0.1522,-0.5112 -0.2448,-1.0389 -0.2826,-1.5706 -0.0346,-0.4858 -0.0283,-0.9742 0.0158,-1.459 0.0043,-0.0461 0.0087,-0.0919 0.0136,-0.1378 0.0895,-0.8386 0.2497,-1.6726 0.5121,-2.475 0.2344,-0.7165 0.5386,-1.4118 0.9316,-2.0559 0.3601,-0.5903 0.7836,-1.1418 1.2788,-1.6252 0.4598,-0.4491 0.97,-0.8451 1.5285,-1.1642 0.5295,-0.3026 1.0931,-0.5419 1.6826,-0.6999 0.569,-0.1525 1.1539,-0.2339 1.7433,-0.2319 0.4408,0.0015 0.8784,0.0679 1.2971,0.2065 0.3804,0.1259 0.7437,0.2985 1.0764,0.5226 0.2068,0.1395 0.4022,0.2951 0.5829,0.4664 0.1603,-0.2436 0.3714,-0.4414 0.6681,-0.5679 0.752,-0.3206 1.6379,-0.5608 2.4573,-0.415 0.9701,0.1726 1.6484,0.8632 1.7984,1.8379 0.119,0.7721 -0.1072,1.5912 -0.3886,2.3057 -0.0825,0.2092 -0.1625,0.4193 -0.2401,0.6302 0.2919,-0.0354 0.5871,-0.0365 0.8797,0.0092 0.5324,0.0829 1.0158,0.3155 1.3946,0.7016 0.3285,0.3351 0.5321,0.7477 0.6311,1.1965 0.3368,-0.2921 0.7025,-0.5502 1.092,-0.7675 0.406,-0.2264 0.8354,-0.4108 1.2826,-0.5393 0.4439,-0.1274 0.9056,-0.1987 1.368,-0.1874 0.4924,0.012 0.9714,0.1212 1.411,0.3459 0.052,0.0266 0.1031,0.0547 0.153,0.0845 0.0244,-0.0973 0.0525,-0.1938 0.0847,-0.2892 0.0944,-0.28 0.2122,-0.5523 0.3626,-0.807 0.1295,-0.2193 0.2781,-0.4287 0.453,-0.6143 0.2411,-0.2559 0.5107,-0.4542 0.8554,-0.5456 0.4567,-0.1209 0.9325,-0.2007 1.4063,-0.1735 0.5298,0.0303 1.0368,0.1886 1.4498,0.5303 0.4661,0.3857 0.7173,0.9299 0.7524,1.5297 0.0046,0.08 0.0051,0.1603 0.0019,0.2402 0.3714,0.0454 0.7319,0.15 1.0707,0.3202 0.0444,0.0222 0.0882,0.0455 0.1315,0.0695 z m -20.9642,4.1346 c 0.0221,-0.2322 0.0461,-0.4644 0.0716,-0.6964 0.0566,-0.5148 0.1252,-1.0282 0.1992,-1.5408 0.0403,-0.279 0.0838,-0.5576 0.1302,-0.8356 -0.2694,0.0109 -0.5395,-0.0161 -0.8059,-0.0787 -0.4757,-0.1116 -0.9161,-0.3176 -1.2967,-0.6257 -0.4309,-0.3487 -0.5639,-0.8338 -0.522,-1.3681 0.0118,-0.1514 0.0273,-0.3024 0.0433,-0.4533 0.0037,-0.0347 0.0071,-0.0694 0.0103,-0.104 -0.0448,0.0863 -0.0868,0.1733 -0.1266,0.2587 -0.2034,0.4368 -0.3506,0.9051 -0.4719,1.3705 -0.1646,0.6315 -0.2629,1.2825 -0.3335,1.9306 -0.0514,0.4721 -0.0803,0.9527 -0.0512,1.4272 0.0182,0.2968 0.0687,0.6045 0.1816,0.8808 0.0657,0.161 0.1572,0.2968 0.2914,0.4082 0.1716,0.1421 0.4005,0.2256 0.6148,0.2762 0.1617,0.0381 0.3267,0.0485 0.4918,0.0303 0.1877,-0.0207 0.3707,-0.0658 0.5461,-0.1355 0.1834,-0.0729 0.3598,-0.1635 0.5226,-0.2754 0.1401,-0.0961 0.2749,-0.2047 0.3906,-0.3296 0.04,-0.0434 0.0795,-0.0902 0.1143,-0.1394 z"
       id="path4027"
       inkscape:connector-curvature="0"
       style="fill:#c64995" /><path
       class="fil0"
       d="m 102.632,54.5428 c 0.0273,-0.52 0.1264,-1.0371 0.2715,-1.5357 0.1562,-0.5364 0.3856,-1.0475 0.6976,-1.5117 0.281,-0.4185 0.615,-0.7981 1.0082,-1.1148 0.3589,-0.2888 0.7527,-0.5292 1.1819,-0.6978 0.3993,-0.157 0.8189,-0.255 1.2487,-0.2654 0.1535,-0.0038 0.3066,0.0042 0.4577,0.0244 0.0116,-0.0081 0.0235,-0.0164 0.0359,-0.0247 0.5741,-0.3852 1.2757,-0.6886 1.9795,-0.6648 0.222,0.0074 0.428,0.051 0.6138,0.127 0.1442,-0.393 0.0228,-0.1911 0.3125,-0.5461 l 0.0846,-0.1033 0.1113,-0.0742 c 0.2292,-0.1529 0.423,-0.1567 0.6687,-0.1514 0.0564,0.0012 0.1131,0.003 0.1698,0.0047 0.0122,-0.0647 0.025,-0.1291 0.0377,-0.1938 0.0537,-0.273 0.1107,-0.5458 0.1757,-0.8165 0.052,-0.2173 0.1125,-0.4357 0.1897,-0.6456 0.1217,-0.3312 0.3081,-0.6197 0.6539,-0.7554 0.6708,-0.2623 1.4823,-0.4556 2.2,-0.2959 0.7592,0.1686 1.2522,0.7192 1.3347,1.4927 0.0178,0.1668 0.0152,0.3375 -0.003,0.5096 0.0656,-0.0246 0.1315,-0.0484 0.1977,-0.0703 0.4497,-0.1478 0.9385,-0.0576 1.2066,0.3734 0.3505,0.5636 0.6352,1.2418 0.547,1.9189 -0.0935,0.7171 -0.569,1.2202 -1.2445,1.4487 -0.2544,0.0861 -0.5218,0.1434 -0.7863,0.1867 -0.2968,0.0484 -0.5966,0.0789 -0.8964,0.1015 -0.0929,0.0068 -0.1861,0.0128 -0.279,0.0178 -0.0632,0.2642 -0.1199,0.5301 -0.1698,0.7973 -0.084,0.4493 -0.1543,0.9026 -0.1991,1.3576 -0.038,0.3829 -0.06,0.7696 -0.0546,1.1543 0.002,0.1632 0.009,0.3354 0.0276,0.5037 0.0136,-0.0033 0.0267,-0.0063 0.0392,-0.0095 0.1101,-0.0285 0.2163,-0.0766 0.3152,-0.1324 0.1098,-0.062 0.2092,-0.1371 0.2992,-0.2256 0.1956,-0.1929 0.4194,-0.3627 0.6705,-0.4761 0.2733,-0.1231 0.5701,-0.1825 0.8678,-0.1211 0.4177,0.0864 0.7394,0.3886 0.843,0.8035 0.0834,0.3345 0.002,0.6601 -0.1591,0.956 -0.1422,0.2612 -0.3529,0.4889 -0.5726,0.6872 -0.363,0.3276 -0.7536,0.6248 -1.1685,0.8839 -0.401,0.2502 -0.8287,0.4568 -1.2819,0.593 -0.4577,0.1374 -0.9341,0.187 -1.4093,0.1327 -0.5174,-0.0591 -0.9929,-0.2585 -1.3573,-0.6334 -0.1965,0.116 -0.4001,0.2193 -0.61,0.3099 -0.298,0.1288 -0.6093,0.224 -0.9287,0.2828 -0.3482,0.0644 -0.7023,0.0692 -1.051,0.0074 -0.4681,-0.0825 -0.9104,-0.2511 -1.293,-0.5363 -0.0385,-0.0288 -0.0756,-0.0582 -0.1121,-0.0885 -0.1398,0.1054 -0.2874,0.2004 -0.4405,0.288 -0.2716,0.1552 -0.5619,0.2656 -0.8664,0.3348 -0.3241,0.0733 -0.658,0.0851 -0.9875,0.048 -0.5215,-0.0584 -1.0038,-0.2427 -1.4158,-0.5692 -0.1864,-0.1479 -0.3485,-0.3164 -0.488,-0.502 -0.135,0.0832 -0.273,0.1615 -0.4137,0.2354 -0.4598,0.2413 -0.9486,0.4203 -1.4517,0.5476 -0.5634,0.1422 -1.1451,0.2057 -1.7257,0.2057 -0.593,0 -1.1879,-0.0751 -1.7536,-0.257 -0.5105,-0.1647 -0.9896,-0.4058 -1.4119,-0.7382 -0.3983,-0.3137 -0.7376,-0.6868 -1.0095,-1.1148 -0.265,-0.4176 -0.4666,-0.8685 -0.6076,-1.3425 -0.1421,-0.4773 -0.2285,-0.9694 -0.2635,-1.4657 -0.0359,-0.5031 -0.0256,-1.0082 0.0279,-1.5098 0.0855,-0.8041 0.2392,-1.6055 0.4909,-2.3749 0.2223,-0.6799 0.5108,-1.3412 0.8839,-1.953 0.339,-0.5553 0.7364,-1.0747 1.2027,-1.5298 0.4304,-0.4202 0.9068,-0.7907 1.4294,-1.0893 0.4934,-0.2819 1.0172,-0.5048 1.5663,-0.6521 0.5278,-0.1412 1.0683,-0.2169 1.615,-0.2151 0.3891,0.0011 0.7747,0.0593 1.1442,0.1816 0.3384,0.1122 0.6607,0.2645 0.9566,0.4639 0.2781,0.1873 0.5322,0.4064 0.7539,0.6578 0.2069,0.2341 0.3862,0.4927 0.526,0.7723 0.138,0.2763 0.2366,0.5707 0.2725,0.8779 0.0561,0.4761 0.0492,0.9703 -0.0778,1.4351 -0.114,0.4168 -0.3066,0.8032 -0.6108,1.1143 -0.2871,0.2935 -0.6367,0.5001 -1.0347,0.6001 -0.3814,0.0962 -0.7712,0.0932 -1.1537,0.0033 -0.404,-0.0947 -0.7768,-0.2677 -1.1003,-0.5295 -0.3057,-0.2476 -0.3705,-0.5865 -0.342,-0.9489 0.0116,-0.147 0.0265,-0.2936 0.0422,-0.4399 0.0178,-0.1683 0.0294,-0.3378 0.0383,-0.507 0.009,-0.1662 0.004,-0.3327 -0.007,-0.4986 -0.009,-0.1217 -0.03,-0.2434 -0.0677,-0.3595 -0.006,-0.0201 -0.0149,-0.0424 -0.0258,-0.0629 -0.0104,0.0051 -0.0199,0.0104 -0.0273,0.0146 -0.1517,0.0857 -0.3093,0.2618 -0.4171,0.395 -0.2181,0.2704 -0.3947,0.6008 -0.5408,0.9145 -0.2149,0.4618 -0.3736,0.9617 -0.5019,1.4538 -0.17,0.6524 -0.2733,1.3315 -0.3464,2.0011 -0.0543,0.4984 -0.0837,1.0092 -0.0531,1.5102 0.0217,0.3508 0.0834,0.7094 0.217,1.0362 0.0965,0.2362 0.2357,0.4372 0.4324,0.6001 0.2322,0.1924 0.5242,0.3072 0.8148,0.3758 0.2164,0.051 0.4369,0.0647 0.658,0.0404 0.2315,-0.0256 0.4568,-0.0811 0.6735,-0.1672 0.1825,-0.0724 0.3591,-0.1602 0.5254,-0.265 z m 8.2217,-2.2086 c -0.0365,0.1348 -0.0707,0.2704 -0.1021,0.4066 -0.0615,0.2654 -0.1179,0.5319 -0.1645,0.8005 -0.0448,0.2574 -0.0801,0.5165 -0.1041,0.7768 -0.0193,0.211 -0.0309,0.4265 -0.0223,0.6384 0.004,0.0843 0.0119,0.2022 0.0389,0.2868 0.0599,-0.0377 0.1359,-0.1078 0.1721,-0.1431 0.003,-0.003 0.007,-0.0062 0.01,-0.0092 -0.003,-0.0959 -0.004,-0.1914 -0.004,-0.287 0.001,-0.5361 0.0335,-1.0727 0.086,-1.6061 0.0285,-0.2882 0.0585,-0.5761 0.09,-0.8637 z m -42.6604,4.5163 c -0.1599,0.1472 -0.33,0.2838 -0.5105,0.409 -0.4209,0.2921 -0.8794,0.5218 -1.3662,0.6815 -0.4666,0.1529 -0.9483,0.2449 -1.439,0.268 -0.4707,0.022 -0.942,-0.0193 -1.3997,-0.1321 -0.4488,-0.111 -0.8721,-0.2932 -1.2529,-0.5565 -0.2095,-0.1448 -0.3965,-0.3122 -0.5595,-0.501 -0.1793,0.1226 -0.3642,0.2369 -0.5535,0.3434 -0.3256,0.1831 -0.6631,0.3434 -1.0119,0.4773 -0.3398,0.1303 -0.6918,0.2315 -1.0501,0.2968 -0.3487,0.0632 -0.7064,0.0864 -1.0593,0.049 -0.5476,-0.0579 -1.0715,-0.2262 -1.5342,-0.5272 -0.0033,-0.002 -0.0063,-0.0041 -0.0095,-0.0062 -0.1164,0.0748 -0.2369,0.1428 -0.3613,0.2045 -0.3294,0.1633 -0.682,0.2677 -1.045,0.322 -0.3933,0.0588 -0.7913,0.0425 -1.182,-0.027 -0.5799,-0.1033 -1.1118,-0.3404 -1.5389,-0.7515 -0.4387,-0.4224 -0.6922,-0.9735 -0.8228,-1.5615 -0.019,-0.0846 -0.0353,-0.1704 -0.0493,-0.2568 -0.0017,0.0843 -0.0023,0.1683 -0.0012,0.2523 0.003,0.2526 0.0199,0.5117 0.0665,0.7599 0.0668,0.3555 -0.054,0.7067 -0.2905,0.9735 -0.1618,0.1826 -0.3648,0.3194 -0.5854,0.4203 -0.2214,0.1015 -0.4576,0.1606 -0.699,0.1885 -0.2801,0.0323 -0.5586,0.0056 -0.8313,-0.0641 -0.3244,-0.0828 -0.621,-0.2327 -0.8756,-0.4512 -0.1941,-0.1662 -0.3031,-0.3805 -0.3672,-0.6129 -0.1742,0.1128 -0.3538,0.2173 -0.5375,0.3137 -0.4598,0.2413 -0.9486,0.4203 -1.4517,0.5476 -0.5634,0.1422 -1.1451,0.2057 -1.7257,0.2057 -0.593,0 -1.1878,-0.0751 -1.7536,-0.257 C 41.885,57.6938 41.406,57.4527 40.9836,57.1203 40.5853,56.8066 40.246,56.4335 39.9741,56.0055 39.7091,55.5879 39.5075,55.137 39.3666,54.663 39.2244,54.1857 39.138,53.6936 39.103,53.1973 c -0.033,-0.4597 -0.0267,-0.921 0.0151,-1.3798 0.0039,-0.0431 0.008,-0.0867 0.0128,-0.13 0.0855,-0.8038 0.2389,-1.6055 0.4906,-2.3749 0.2223,-0.6802 0.5111,-1.3412 0.8842,-1.953 0.339,-0.5553 0.7364,-1.0747 1.2027,-1.5298 0.4304,-0.4202 0.9068,-0.7907 1.4295,-1.0893 0.4933,-0.2819 1.0171,-0.5048 1.5662,-0.6521 0.5278,-0.1412 1.0683,-0.2169 1.615,-0.2151 0.3891,0.0011 0.7747,0.0593 1.1445,0.1816 0.3381,0.1122 0.6607,0.2648 0.9566,0.4639 0.2779,0.1873 0.5319,0.4064 0.7537,0.6578 0.0834,0.0943 0.162,0.1923 0.2353,0.2944 0.0253,-0.0754 0.0517,-0.1499 0.0799,-0.2232 0.1279,-0.3345 0.2986,-0.6373 0.6482,-0.7863 0.656,-0.2799 1.4618,-0.5108 2.1792,-0.3831 0.7637,0.1359 1.2819,0.6624 1.4001,1.43 0.1042,0.6761 -0.114,1.4268 -0.3604,2.0516 -0.1938,0.4921 -0.3745,0.9892 -0.5434,1.4906 0.1113,-0.0386 0.2241,-0.0731 0.3383,-0.1024 0.3987,-0.1033 0.8163,-0.149 1.2253,-0.0852 0.4283,0.0668 0.8156,0.2502 1.1202,0.5607 0.319,0.3253 0.4861,0.7423 0.5419,1.1896 0.0357,0.2861 0.0211,0.5785 -0.0255,0.8655 0.2128,-0.2778 0.4518,-0.534 0.7133,-0.7679 0.3312,-0.2965 0.6933,-0.5568 1.0818,-0.7735 0.3734,-0.2083 0.7679,-0.3781 1.1793,-0.4962 0.3962,-0.1137 0.8079,-0.1787 1.2208,-0.1686 0.4191,0.0101 0.8257,0.1012 1.2,0.2923 0.2938,0.1502 0.5423,0.3589 0.7399,0.6144 9e-4,-0.0638 0.0036,-0.1276 0.0084,-0.1911 0.0219,-0.3093 0.0774,-0.6135 0.1766,-0.9077 0.0834,-0.2475 0.1872,-0.4891 0.3202,-0.7144 0.1107,-0.1873 0.2384,-0.3689 0.3877,-0.5274 0.1757,-0.1864 0.3707,-0.3408 0.6242,-0.4078 0.4039,-0.1072 0.8334,-0.1823 1.2528,-0.1582 0.4239,0.0243 0.834,0.1445 1.1656,0.4188 0.3606,0.2983 0.5485,0.7165 0.5755,1.1807 0.0134,0.2282 -0.0157,0.4559 -0.0712,0.6779 0.0392,-0.0015 0.0786,-0.0027 0.1184,-0.0027 0.4515,-0.0015 0.8904,0.0914 1.2947,0.2945 0.2564,0.1288 0.4886,0.2914 0.6945,0.485 0.0585,-0.3351 0.1203,-0.6699 0.1838,-1.0042 0.0754,-0.3983 0.1573,-0.7951 0.2401,-1.192 0.0795,-0.3811 0.1659,-0.7604 0.2547,-1.1397 0.0771,-0.3301 0.1602,-0.6584 0.2496,-0.9854 0.0694,-0.2541 0.1451,-0.5117 0.2392,-0.7578 0.1279,-0.3345 0.2986,-0.6373 0.6482,-0.7863 0.656,-0.2799 1.4619,-0.5108 2.1792,-0.3831 0.7637,0.1359 1.282,0.6624 1.4001,1.43 0.1042,0.6761 -0.114,1.4268 -0.3603,2.0516 -0.1938,0.4921 -0.3746,0.9892 -0.5435,1.4906 0.1113,-0.0386 0.2241,-0.0731 0.3384,-0.1024 0.3986,-0.1033 0.8162,-0.149 1.2252,-0.0852 0.4283,0.0668 0.8157,0.2502 1.1202,0.5607 0.125,0.1276 0.2268,0.2692 0.3075,0.4211 0.095,-0.1629 0.2211,-0.3048 0.3865,-0.4113 0.024,-0.0155 0.0483,-0.0309 0.0727,-0.0461 -0.2894,-0.3428 -0.4159,-0.7678 -0.3396,-1.2124 0.0701,-0.4099 0.3031,-0.7539 0.5996,-1.0362 0.303,-0.2885 0.6821,-0.5096 1.0563,-0.6928 0.125,-0.0611 0.2491,-0.1229 0.377,-0.1784 0.1686,-0.0733 0.3425,-0.132 0.5221,-0.1709 0.2371,-0.0517 0.4779,-0.0549 0.7156,-0.0071 0.2912,0.0584 0.5479,0.2039 0.7613,0.4084 0.2161,0.2066 0.3693,0.4686 0.48,0.7444 0.1537,0.3838 0.2069,0.796 0.1157,1.2021 -9e-4,0.0038 -0.0018,0.0077 -0.0026,0.0115 0.0011,-3e-4 0.002,-5e-4 0.0032,-8e-4 0.4274,-0.1203 0.878,-0.1766 1.3208,-0.1262 0.4295,0.049 0.8341,0.2007 1.1532,0.4998 0.1757,0.1651 0.3066,0.3586 0.3947,0.5711 0.1066,-0.0703 0.2176,-0.1339 0.3327,-0.1879 0.4263,-0.2003 0.8929,-0.3291 1.3672,-0.3015 0.4689,0.0273 0.899,0.1923 1.2374,0.5221 0.2677,0.2603 0.4366,0.5823 0.5271,0.9352 0.2111,-0.1579 0.4322,-0.3018 0.6628,-0.4304 0.3734,-0.2083 0.7679,-0.3781 1.1792,-0.4962 0.396,-0.1134 0.808,-0.1787 1.2205,-0.1686 0.4191,0.0101 0.8258,0.1012 1.2004,0.2923 0.4096,0.209 0.7307,0.5322 0.9495,0.9368 0.2312,0.4277 0.3104,0.9023 0.265,1.3849 -0.0436,0.4627 -0.1897,0.9053 -0.3983,1.319 -0.011,0.0214 -0.022,0.0428 -0.033,0.0642 0.0493,-0.0223 0.1004,-0.041 0.1541,-0.0561 0.6551,-0.1844 1.2327,0.268 1.284,0.9314 0.0261,0.3371 -0.0855,0.6779 -0.2199,0.9824 -0.1431,0.3238 -0.3452,0.6162 -0.5782,0.8813 -0.2384,0.2709 -0.5055,0.5149 -0.7898,0.7363 -0.2942,0.2292 -0.605,0.4352 -0.9297,0.6177 -0.3256,0.1828 -0.663,0.3434 -1.0115,0.4773 -0.3402,0.1306 -0.6919,0.2315 -1.0504,0.2968 -0.3488,0.0632 -0.7064,0.0864 -1.0596,0.049 -0.5474,-0.0579 -1.071,-0.2262 -1.534,-0.5272 -0.4559,-0.2965 -0.8118,-0.6966 -1.0617,-1.1801 -0.2579,-0.4998 -0.3784,-1.0507 -0.4031,-1.6105 -0.0154,-0.3452 0.0084,-0.6916 0.0612,-1.0335 -0.2247,0.0448 -0.4538,0.0709 -0.683,0.0611 -0.2244,-0.0092 -0.4488,-0.0424 -0.6565,-0.1306 -0.1128,-0.0477 -0.2149,-0.1113 -0.3037,-0.187 -0.0388,0.0642 -0.0765,0.1292 -0.1131,0.1948 -0.1534,0.2742 -0.2849,0.5609 -0.3983,0.8539 -0.1119,0.2903 -0.2039,0.5889 -0.2677,0.8934 -0.0549,0.2612 -0.0748,0.5254 -0.0695,0.7922 3e-4,0.0163 6e-4,0.0323 6e-4,0.0484 0.0072,0.0353 0.0146,0.0706 0.0223,0.1059 0.0184,0.0873 0.0303,0.174 0.0433,0.2621 0.0582,0.3897 -0.0991,0.7587 -0.3935,1.013 -0.1805,0.1556 -0.3951,0.2639 -0.6192,0.3405 -0.2217,0.0757 -0.4514,0.1178 -0.6847,0.1339 -0.2568,0.0175 -0.5138,-0.0024 -0.7643,-0.0618 -0.217,-0.0516 -0.4209,-0.1368 -0.6073,-0.2547 -0.0113,0.0045 -0.0226,0.009 -0.0341,0.0134 -0.2877,0.111 -0.5857,0.1938 -0.8902,0.2446 -0.3247,0.054 -0.6542,0.0644 -0.9813,0.0276 -0.4238,-0.0478 -0.8236,-0.1737 -1.1685,-0.4001 -0.0457,0.0249 -0.0917,0.049 -0.1383,0.0721 -0.3295,0.163 -0.6818,0.2677 -1.0448,0.3217 -0.3933,0.0588 -0.7913,0.0425 -1.1819,-0.027 -0.58,-0.1033 -1.1119,-0.3404 -1.539,-0.7515 -0.4387,-0.4224 -0.6922,-0.9735 -0.8228,-1.5615 -0.0189,-0.0846 -0.0353,-0.1704 -0.0492,-0.2568 -0.0018,0.0843 -0.0024,0.1683 -0.0012,0.2523 0.003,0.2526 0.0199,0.5117 0.0665,0.7599 0.0668,0.3555 -0.054,0.7067 -0.2906,0.9735 -0.1618,0.1826 -0.3648,0.3194 -0.5853,0.4203 -0.2214,0.1015 -0.4577,0.1606 -0.699,0.1885 -0.2802,0.0323 -0.5586,0.0056 -0.8314,-0.0641 -0.3244,-0.0828 -0.6209,-0.2327 -0.8756,-0.4512 -0.2484,-0.2128 -0.3571,-0.504 -0.4117,-0.8109 z M 48.3915,49.9354 c -0.0466,0.0151 -0.0944,0.0288 -0.1425,0.0409 -0.3814,0.0962 -0.7711,0.0932 -1.1537,0.0033 -0.404,-0.0947 -0.7768,-0.2677 -1.1003,-0.5295 -0.3057,-0.2476 -0.3704,-0.5865 -0.3419,-0.9489 0.0115,-0.147 0.0264,-0.2936 0.0421,-0.4399 0.0178,-0.1683 0.0294,-0.3378 0.0383,-0.507 0.0086,-0.1662 0.0044,-0.3327 -0.0074,-0.4986 -0.0089,-0.1217 -0.03,-0.2434 -0.0677,-0.3595 -0.0065,-0.0201 -0.0148,-0.0424 -0.0258,-0.0629 -0.0104,0.0051 -0.0199,0.0104 -0.0273,0.0146 -0.1517,0.0857 -0.3093,0.2618 -0.4171,0.395 -0.2181,0.2704 -0.3947,0.6008 -0.5407,0.9145 -0.2149,0.4618 -0.3737,0.9617 -0.502,1.4538 -0.17,0.6524 -0.2733,1.3315 -0.3463,2.0011 -0.0544,0.4984 -0.0837,1.0092 -0.0532,1.5102 0.0217,0.3508 0.0834,0.7094 0.217,1.0362 0.0965,0.2362 0.2357,0.4372 0.4325,0.6001 0.2321,0.1924 0.5241,0.3072 0.8147,0.3758 0.2164,0.051 0.4372,0.0647 0.658,0.0404 0.2316,-0.0256 0.4568,-0.0811 0.6735,-0.1672 0.2173,-0.0863 0.4256,-0.1941 0.6189,-0.3267 0.17,-0.1167 0.3327,-0.2491 0.4731,-0.401 0.0864,-0.0935 0.1683,-0.198 0.2315,-0.3099 0.0246,-0.2686 0.0522,-0.5369 0.0816,-0.805 0.0561,-0.5093 0.1238,-1.0171 0.1971,-1.5244 0.0472,-0.3277 0.0991,-0.6548 0.1549,-0.981 0.03,-0.1748 0.0609,-0.3496 0.0927,-0.5244 z m 14.2292,1.9729 c -0.0371,0.363 -0.1366,0.7135 -0.2796,1.0471 0.0234,-0.0106 0.0469,-0.021 0.0706,-0.0311 0.2161,-0.0909 0.4417,-0.1565 0.6773,-0.1636 0.0036,0 0.0069,0 0.0104,-3e-4 0.0371,-0.081 0.0725,-0.1629 0.106,-0.2448 0.0015,-0.0039 0.003,-0.0078 0.0044,-0.0113 -0.2181,-0.1547 -0.4081,-0.3434 -0.5651,-0.5616 -0.008,-0.0113 -0.0163,-0.0228 -0.024,-0.0344 z m 4.5014,1.4725 c -0.0448,-0.033 -0.1018,-0.0546 -0.154,-0.0692 -0.1689,-0.0469 -0.3443,-0.0745 -0.5185,-0.0908 -0.2434,-0.0229 -0.4874,-0.0395 -0.7314,-0.052 -0.0169,-8e-4 -0.0341,-0.0017 -0.051,-0.0026 -0.0241,0.0929 -0.049,0.1855 -0.0751,0.2781 -0.0894,0.3191 -0.1927,0.634 -0.3099,0.9439 -0.0303,0.0795 -0.0612,0.1587 -0.0935,0.2374 0.0706,0.0514 0.1434,0.0994 0.2184,0.1443 0.1879,0.1119 0.391,0.1985 0.607,0.2362 0.1389,0.0244 0.2713,0.0172 0.4037,-0.0329 0.1342,-0.0511 0.2464,-0.1757 0.3277,-0.2894 0.1769,-0.247 0.2834,-0.6061 0.3473,-0.8991 0.0201,-0.0926 0.056,-0.2911 0.0341,-0.3861 -0.0012,-0.0051 -0.0027,-0.0116 -0.0048,-0.0178 z"
       id="path4029"
       inkscape:connector-curvature="0"
       style="fill:#710153" /><path
       class="fil11"
       d="m 116.437,50.2303 c 0.3863,-0.1343 0.6028,-0.3736 0.6468,-0.7201 0.0463,-0.3466 -0.0945,-0.7896 -0.4199,-1.3336 -0.019,-0.0294 -0.0757,-0.0294 -0.1722,0.0021 -0.0947,0.0315 -0.2269,0.0819 -0.3971,0.1511 -0.168,0.0695 -0.3738,0.1449 -0.6152,0.2269 -0.2435,0.084 -0.5188,0.1639 -0.8315,0.2372 0.0188,-0.0377 0.0378,-0.0757 0.0544,-0.1113 0.019,-0.0377 0.0338,-0.0713 0.0463,-0.1028 0.2982,-0.6657 0.4264,-1.1969 0.3843,-1.5918 -0.0419,-0.3926 -0.2563,-0.6322 -0.6426,-0.7181 -0.3864,-0.086 -0.947,-0.0023 -1.6821,0.256 -0.044,0.0191 -0.0924,0.0947 -0.1426,0.2332 -0.0505,0.1365 -0.1052,0.3191 -0.1598,0.546 -0.0546,0.2289 -0.1113,0.4893 -0.168,0.7813 -0.0588,0.2939 -0.1155,0.6048 -0.1722,0.9344 -0.1993,-0.0041 -0.3801,-0.0107 -0.5417,-0.0148 -0.1618,-0.0063 -0.2898,-0.0104 -0.3863,-0.0125 -0.0968,-0.0021 -0.1494,-0.0021 -0.1556,0.0021 -0.0754,0.0923 -0.13,0.1912 -0.168,0.2939 -0.0378,0.1031 -0.0378,0.2079 0,0.3193 0.04,0.1113 0.1386,0.2268 0.2942,0.3444 0.0882,0.0692 0.1972,0.1301 0.3275,0.1826 0.1301,0.0526 0.2771,0.1009 0.441,0.1449 -0.0377,0.2521 -0.0715,0.4977 -0.1031,0.7329 -0.0314,0.2372 -0.0608,0.4641 -0.086,0.6782 -0.0713,0.5861 -0.1322,1.1488 -0.1847,1.6926 -0.0547,0.5439 -0.082,1.0499 -0.082,1.5205 -10e-4,0.2458 0.009,0.4764 0.0318,0.6923 -0.0978,0.0575 -0.2006,0.137 -0.3068,0.2401 -0.1847,0.1806 -0.361,0.3023 -0.5312,0.3632 -0.1723,0.063 -0.3296,0.0778 -0.4745,0.0442 -0.1449,-0.0317 -0.2711,-0.1009 -0.378,-0.2037 -0.1072,-0.103 -0.1871,-0.231 -0.2417,-0.3801 -0.0547,-0.1514 -0.0861,-0.3403 -0.0965,-0.5692 -0.008,-0.2289 0,-0.4808 0.0252,-0.756 0.0253,-0.275 0.0629,-0.5585 0.1134,-0.8483 0.0505,-0.2898 0.1093,-0.5734 0.1744,-0.8484 0.0629,-0.2773 0.13,-0.5291 0.1995,-0.7581 0.193,-0.691 0.2352,-1.216 0.1259,-1.577 -0.1113,-0.3614 -0.3528,-0.5502 -0.7266,-0.5628 -0.3739,-0.0127 -0.8567,0.1595 -1.4532,0.5144 -0.0253,0.019 -0.0505,0.0567 -0.0755,0.1093 -0.0252,0.0546 -0.0505,0.1238 -0.0757,0.2057 -0.2393,-0.1155 -0.5125,-0.1701 -0.8168,-0.1639 -0.3044,0.0086 -0.6195,0.0757 -0.9449,0.2037 -0.3278,0.1283 -0.6426,0.3171 -0.9493,0.563 -0.3065,0.2477 -0.5838,0.5523 -0.8273,0.9175 -0.2459,0.3635 -0.4389,0.7854 -0.5817,1.2641 -0.1618,0.5713 -0.2438,1.0963 -0.2438,1.5729 0,0.0576 10e-4,0.1143 0.003,0.1701 -0.0903,0.0741 -0.1865,0.1462 -0.2888,0.2165 -0.2415,0.1657 -0.506,0.3065 -0.7938,0.4199 -0.2877,0.1155 -0.59,0.1891 -0.905,0.2248 -0.3151,0.0335 -0.6364,0.0145 -0.9597,-0.0588 -0.4787,-0.1176 -0.8715,-0.3026 -1.178,-0.5565 -0.3046,-0.2521 -0.5335,-0.5692 -0.6889,-0.9493 -0.1553,-0.3801 -0.2497,-0.8189 -0.2815,-1.3187 -0.0294,-0.4997 -0.0104,-1.0521 0.0568,-1.661 0.086,-0.798 0.2081,-1.5079 0.3696,-2.1294 0.1618,-0.6195 0.3466,-1.1551 0.5565,-1.6044 0.2079,-0.4492 0.4264,-0.8148 0.6553,-1.0984 0.2287,-0.2833 0.4534,-0.4869 0.672,-0.611 0.2204,-0.1239 0.4219,-0.1702 0.6067,-0.1384 0.1953,0.0356 0.3507,0.1155 0.4685,0.2372 0.1176,0.1218 0.2058,0.2708 0.2625,0.4493 0.0588,0.1764 0.0944,0.3676 0.109,0.5713 0.0148,0.2058 0.019,0.4074 0.009,0.609 -0.0107,0.2014 -0.0252,0.3864 -0.0422,0.5544 -0.019,0.1699 -0.0314,0.3086 -0.0398,0.4157 -0.008,0.1072 -0.004,0.1701 0.0146,0.1868 0.2393,0.1764 0.4873,0.294 0.7435,0.3549 0.2539,0.0588 0.4977,0.0588 0.7329,0 0.2331,-0.0588 0.4389,-0.1785 0.6152,-0.359 0.1764,-0.1806 0.3044,-0.422 0.3884,-0.7267 0.082,-0.3022 0.101,-0.6678 0.0526,-1.096 -0.0232,-0.1891 -0.084,-0.3845 -0.1847,-0.5837 -0.0989,-0.1996 -0.231,-0.395 -0.397,-0.5818 -0.166,-0.1891 -0.3611,-0.3572 -0.5838,-0.5083 -0.2227,-0.1491 -0.4682,-0.2687 -0.7391,-0.3569 -0.2687,-0.0903 -0.5585,-0.1345 -0.8673,-0.1366 -0.4579,0 -0.9176,0.0609 -1.3817,0.185 -0.4621,0.1238 -0.9137,0.3127 -1.3546,0.5648 -0.441,0.252 -0.8567,0.5713 -1.2496,0.9534 -0.3925,0.3843 -0.7473,0.8356 -1.0645,1.3565 -0.3171,0.5187 -0.5817,1.1087 -0.7978,1.7661 -0.2144,0.6593 -0.3656,1.39 -0.4517,2.1923 -0.0484,0.4579 -0.0567,0.9093 -0.0252,1.3523 0.0314,0.443 0.1071,0.8694 0.2289,1.2748 0.1197,0.4053 0.2898,0.777 0.506,1.1191 0.2185,0.3424 0.4873,0.6405 0.8086,0.8926 0.3212,0.2541 0.6992,0.4514 1.134,0.59 0.4326,0.1407 0.9261,0.212 1.4805,0.2144 0.5437,-0.0024 1.0479,-0.0632 1.5076,-0.1787 0.462,-0.1176 0.8801,-0.275 1.2557,-0.4725 0.376,-0.1974 0.7079,-0.4199 0.9977,-0.6657 0.0528,-0.0451 0.104,-0.0903 0.1538,-0.1359 0.0287,0.1064 0.0629,0.2084 0.1025,0.306 0.1428,0.357 0.3486,0.6405 0.6152,0.8526 0.2688,0.2122 0.588,0.3402 0.9618,0.3824 0.2435,0.0273 0.4745,0.0187 0.691,-0.0317 0.2182,-0.0482 0.424,-0.1281 0.6215,-0.2394 0.1954,-0.1134 0.3842,-0.2477 0.5648,-0.4095 0.0694,-0.0692 0.1386,-0.1449 0.2037,-0.2268 0.065,-0.0817 0.1238,-0.1699 0.1743,-0.2646 0.1387,0.3213 0.334,0.5734 0.5838,0.7602 0.252,0.187 0.5564,0.3109 0.9157,0.3738 0.2372,0.0421 0.4828,0.04 0.7349,-0.0063 0.2498,-0.0463 0.4956,-0.1217 0.737,-0.2247 0.2394,-0.1049 0.46,-0.2225 0.6658,-0.3548 0.2037,-0.1322 0.378,-0.2646 0.5208,-0.3968 l 0.029,-0.0267 c 0.086,0.26 0.2089,0.4756 0.3698,0.6482 0.2016,0.2162 0.481,0.3465 0.8359,0.3863 0.3444,0.0401 0.6972,0.0063 1.052,-0.1007 0.3569,-0.1071 0.7118,-0.2731 1.0669,-0.4955 0.3549,-0.2207 0.7035,-0.4852 1.0435,-0.7896 0.187,-0.1701 0.315,-0.3192 0.3865,-0.4516 0.0713,-0.1301 0.0987,-0.2352 0.0776,-0.3151 -0.0187,-0.0796 -0.0734,-0.1279 -0.1595,-0.1469 -0.0861,-0.0167 -0.1932,0.002 -0.3213,0.0608 -0.1282,0.0568 -0.2666,0.1556 -0.4115,0.2984 -0.1491,0.147 -0.3109,0.2687 -0.4873,0.3673 -0.1743,0.0989 -0.3506,0.1723 -0.5292,0.2186 -0.1784,0.046 -0.3444,0.065 -0.4976,0.0546 -0.1535,-0.0107 -0.2836,-0.0525 -0.3887,-0.1241 -0.1048,-0.0712 -0.1719,-0.1764 -0.2016,-0.3148 -0.0565,-0.2604 -0.0882,-0.5817 -0.0923,-0.9597 -0.006,-0.378 0.0148,-0.796 0.0587,-1.2537 0.0464,-0.4578 0.1156,-0.9344 0.2103,-1.4344 0.0923,-0.4998 0.2099,-1.0016 0.3527,-1.5055 0.3086,0 0.6111,-0.0107 0.9051,-0.0336 0.2939,-0.0211 0.5669,-0.0525 0.8189,-0.0924 0.2498,-0.0421 0.4662,-0.0926 0.6447,-0.1513 z m -9.8403,5.9723 c -0.1071,0.0923 -0.2206,0.128 -0.3402,0.1093 -0.1197,-0.0211 -0.2311,-0.0924 -0.3359,-0.2144 -0.1051,-0.1239 -0.1933,-0.2919 -0.2604,-0.5081 -0.0674,-0.2183 -0.103,-0.4766 -0.1093,-0.7771 -0.006,-0.3023 0.0315,-0.6405 0.1134,-1.0161 0.0966,-0.4223 0.2204,-0.8086 0.3739,-1.1593 0.1532,-0.3528 0.3213,-0.6532 0.508,-0.9009 0.1868,-0.2479 0.3781,-0.4285 0.5755,-0.5419 0.1952,-0.111 0.3864,-0.1384 0.571,-0.0817 -0.0397,0.21 -0.0796,0.4389 -0.1154,0.6887 -0.0357,0.2479 -0.0692,0.5018 -0.1008,0.7601 -0.0314,0.2584 -0.0608,0.5104 -0.0881,0.7519 -0.0273,0.2414 -0.0505,0.462 -0.0736,0.6594 -0.006,0.1007 -0.0125,0.1973 -0.0167,0.292 -0.006,0.0944 -0.009,0.1867 -0.009,0.2749 -0.0187,0.0903 -0.046,0.21 -0.0837,0.359 -0.036,0.147 -0.0841,0.3047 -0.1387,0.4727 -0.0567,0.1657 -0.1238,0.3234 -0.2016,0.4725 -0.0799,0.1469 -0.1681,0.2666 -0.2688,0.359 z M 48.6376,54.2244 c -0.0902,0.1829 -0.2224,0.3697 -0.3967,0.5585 -0.1743,0.1891 -0.3821,0.3656 -0.6238,0.5315 -0.2415,0.1657 -0.5061,0.3065 -0.7938,0.4199 -0.2877,0.1155 -0.59,0.1891 -0.9051,0.2248 -0.315,0.0335 -0.6363,0.0145 -0.9596,-0.0588 -0.4787,-0.1176 -0.8716,-0.3026 -1.178,-0.5565 -0.3047,-0.2521 -0.5336,-0.5692 -0.6889,-0.9493 -0.1553,-0.3801 -0.2497,-0.8189 -0.2815,-1.3187 -0.0294,-0.4997 -0.0104,-1.0521 0.0568,-1.661 0.086,-0.798 0.208,-1.5079 0.3696,-2.1294 0.1618,-0.6195 0.3465,-1.1551 0.5565,-1.6044 0.2078,-0.4492 0.4264,-0.8148 0.6553,-1.0984 0.2287,-0.2833 0.4534,-0.4869 0.672,-0.611 0.2203,-0.1239 0.4219,-0.1702 0.6066,-0.1384 0.1954,0.0356 0.3507,0.1155 0.4686,0.2372 0.1176,0.1218 0.2058,0.2708 0.2625,0.4493 0.0587,0.1764 0.0944,0.3676 0.109,0.5713 0.0148,0.2058 0.0189,0.4074 0.0086,0.609 -0.0107,0.2014 -0.0252,0.3864 -0.0422,0.5544 -0.019,0.1699 -0.0314,0.3086 -0.0398,0.4157 -0.0086,0.1072 -0.0042,0.1701 0.0146,0.1868 0.2393,0.1764 0.4872,0.294 0.7435,0.3549 0.2539,0.0588 0.4977,0.0588 0.7328,0 0.2332,-0.0588 0.4389,-0.1785 0.6153,-0.359 0.1764,-0.1806 0.3044,-0.422 0.3884,-0.7267 0.082,-0.3022 0.101,-0.6678 0.0526,-1.096 -0.0232,-0.1891 -0.0841,-0.3845 -0.1847,-0.5837 -0.0989,-0.1996 -0.2311,-0.395 -0.397,-0.5818 -0.166,-0.1891 -0.3611,-0.3572 -0.5838,-0.5083 -0.2227,-0.1491 -0.4683,-0.2687 -0.7391,-0.3569 -0.2688,-0.0903 -0.5585,-0.1345 -0.8673,-0.1366 -0.4579,0 -0.9176,0.0609 -1.3817,0.185 -0.4621,0.1238 -0.9137,0.3127 -1.3546,0.5648 -0.441,0.252 -0.8567,0.5713 -1.2496,0.9534 -0.3925,0.3843 -0.7473,0.8356 -1.0645,1.3565 -0.3171,0.5187 -0.5817,1.1087 -0.7979,1.7661 -0.2143,0.6593 -0.3655,1.39 -0.4516,2.1923 -0.0484,0.4579 -0.0567,0.9093 -0.0252,1.3523 0.0314,0.443 0.1071,0.8694 0.2289,1.2748 0.1196,0.4053 0.2898,0.777 0.506,1.1191 0.2185,0.3424 0.4872,0.6405 0.8086,0.8926 0.3212,0.2541 0.6992,0.4514 1.1339,0.59 0.4327,0.1407 0.9262,0.212 1.4806,0.2144 0.5437,-0.0024 1.0479,-0.0632 1.5075,-0.1787 0.4621,-0.1176 0.8801,-0.275 1.2558,-0.4725 0.376,-0.1974 0.7079,-0.4199 0.9977,-0.6657 0.2898,-0.2477 0.5354,-0.5018 0.7349,-0.7664 l 0.0168,-0.0221 c -0.0091,0.1966 -0.0148,0.3824 -0.0168,0.5575 -0.0041,0.3571 0.0065,0.6491 0.0315,0.878 0.0273,0.2287 0.0715,0.3715 0.1345,0.4303 0.1681,0.1324 0.3403,0.2206 0.5167,0.2646 0.1764,0.0463 0.3444,0.0608 0.508,0.0421 0.1619,-0.019 0.3047,-0.0567 0.4306,-0.1134 0.1259,-0.0588 0.2227,-0.1259 0.2898,-0.2016 0.0671,-0.0757 0.0944,-0.1491 0.082,-0.2183 -0.0505,-0.2583 -0.0778,-0.563 -0.082,-0.9137 -0.0042,-0.3506 0.0146,-0.7391 0.0547,-1.1634 0.0376,-0.424 0.0986,-0.8735 0.1784,-1.3501 0.0944,-0.2415 0.2037,-0.4725 0.3296,-0.6889 0.1238,-0.2162 0.25,-0.4051 0.3739,-0.5627 0.1259,-0.1575 0.2351,-0.2709 0.3296,-0.3359 0.1134,-0.0861 0.2143,-0.122 0.3004,-0.1114 0.0862,0.0105 0.1533,0.0883 0.2014,0.2332 0.0463,0.1469 0.0716,0.3821 0.0716,0.7034 0.0021,0.3234 -0.0253,0.7539 -0.082,1.2914 -0.0713,0.7121 -0.0546,1.3062 0.0525,1.7849 0.1052,0.4769 0.2961,0.8484 0.5711,1.1132 0.2773,0.2667 0.6363,0.4388 1.0773,0.5164 0.315,0.0567 0.6132,0.0653 0.8946,0.0232 0.2815,-0.0419 0.5419,-0.1218 0.7813,-0.2394 0.2393,-0.1197 0.4534,-0.2646 0.6425,-0.4389 0.0482,-0.0438 0.0926,-0.0862 0.1334,-0.1273 0.1368,0.1627 0.2953,0.3025 0.4757,0.4192 0.3213,0.21 0.7034,0.3401 1.1423,0.3884 0.2477,0.0253 0.5164,0.0128 0.8062,-0.0398 0.2877,-0.0525 0.5859,-0.1366 0.8905,-0.2521 0.3023,-0.1176 0.6005,-0.2562 0.8947,-0.4219 0.2919,-0.1639 0.5648,-0.3445 0.8189,-0.544 0.1582,-0.122 0.3028,-0.248 0.4354,-0.3774 0.0357,0.139 0.0859,0.2698 0.1505,0.3922 0.1556,0.294 0.3718,0.5375 0.6512,0.7308 0.2791,0.193 0.5983,0.3358 0.9594,0.4241 0.3613,0.0902 0.7435,0.1258 1.1447,0.1071 0.4009,-0.019 0.802,-0.0923 1.2032,-0.2247 0.3991,-0.1301 0.7791,-0.3193 1.1361,-0.5669 0.3569,-0.2479 0.6699,-0.5544 0.9427,-0.922 0.2732,-0.3696 0.4811,-0.7979 0.626,-1.2914 0.1134,-0.4115 0.1702,-0.8085 0.1657,-1.1907 -0.0021,-0.3822 -0.0567,-0.737 -0.1615,-1.0627 -0.1073,-0.3276 -0.2563,-0.6109 -0.4517,-0.8567 -0.1951,-0.2435 -0.4261,-0.4326 -0.6948,-0.5669 -0.267,-0.1345 -0.5651,-0.1995 -0.8926,-0.1995 -0.3296,0.0021 -0.6783,0.084 -1.0521,0.2476 -0.1532,0.0695 -0.25,0.0716 -0.2919,0.0086 -0.0421,-0.0632 -0.0421,-0.1743 0,-0.3361 0.0398,-0.1615 0.1093,-0.3548 0.2037,-0.5796 0.1491,-0.3338 0.2162,-0.6194 0.2016,-0.8546 -0.0127,-0.2352 -0.0988,-0.4157 -0.2541,-0.5461 -0.1574,-0.1279 -0.3739,-0.2016 -0.6489,-0.2162 -0.2752,-0.0169 -0.6007,0.0273 -0.9745,0.1301 -0.0502,0.0128 -0.1176,0.065 -0.2037,0.1577 -0.0861,0.0902 -0.1764,0.2141 -0.2687,0.3694 -0.0923,0.1576 -0.1743,0.3382 -0.2435,0.5461 -0.0716,0.2099 -0.1155,0.4367 -0.1324,0.6868 -0.0188,0.2476 0.0041,0.5101 0.0674,0.7854 0.0567,0.2307 0.1404,0.424 0.2559,0.5858 0.1155,0.1595 0.2542,0.2919 0.416,0.3947 0.1595,0.103 0.3338,0.1826 0.525,0.2414 -0.0926,0.3005 -0.185,0.5651 -0.2794,0.794 -0.0924,0.2266 -0.1889,0.4303 -0.2857,0.609 -0.0985,0.1806 -0.1995,0.3463 -0.3043,0.4997 -0.0253,-0.0379 -0.0484,-0.0757 -0.0674,-0.1155 -0.0208,-0.0379 -0.0398,-0.0798 -0.0588,-0.1241 -0.0294,-0.0502 -0.0944,-0.0733 -0.1972,-0.0712 -0.103,0.0041 -0.2227,0.0356 -0.3592,0.0944 -0.1384,0.0567 -0.2751,0.1428 -0.4075,0.2583 -0.1342,0.1135 -0.2456,0.2563 -0.3358,0.4285 -0.0643,0.1183 -0.1072,0.2518 -0.1302,0.3991 -0.0716,0.073 -0.1472,0.1435 -0.227,0.212 -0.2204,0.1889 -0.4579,0.3548 -0.7118,0.4935 -0.2541,0.1405 -0.5104,0.2477 -0.7687,0.3234 -0.2581,0.0754 -0.5019,0.1113 -0.735,0.109 -0.231,-0.0042 -0.4347,-0.0523 -0.6111,-0.1447 -0.1784,-0.0947 -0.3127,-0.2417 -0.4053,-0.4391 0.0128,-0.0062 0.0232,-0.0104 0.0294,-0.0125 0.0086,-0.0021 0.0148,-0.0063 0.0211,-0.0125 0.4472,-0.1722 0.8632,-0.3928 1.2474,-0.6616 0.3822,-0.2687 0.7183,-0.5648 1.0102,-0.8904 0.2919,-0.3255 0.525,-0.6613 0.697,-1.0037 0.1742,-0.3445 0.2773,-0.6782 0.3067,-1.0016 0.0314,-0.3213 -0.0232,-0.6153 -0.1618,-0.8778 -0.1405,-0.2541 -0.3317,-0.4432 -0.5711,-0.5671 -0.2414,-0.1218 -0.5125,-0.1868 -0.8169,-0.1954 -0.3025,-0.0062 -0.6218,0.038 -0.9534,0.1345 -0.3338,0.0945 -0.6637,0.2352 -0.9912,0.4178 -0.3275,0.1829 -0.6363,0.4033 -0.9217,0.6595 -0.2877,0.2563 -0.5378,0.5419 -0.7519,0.8567 -0.2123,0.3151 -0.3717,0.6533 -0.4748,1.0123 -0.1615,0.5816 -0.233,1.1087 -0.212,1.5853 0.0185,0.4179 0.0997,0.7873 0.2412,1.1082 -0.0463,0.038 -0.0937,0.081 -0.1423,0.1289 -0.2037,0.2016 -0.4012,0.3171 -0.5879,0.3506 -0.1892,0.0315 -0.3551,-0.021 -0.4956,-0.1555 -0.1408,-0.1343 -0.2417,-0.3507 -0.3026,-0.6489 -0.0356,-0.1594 -0.0526,-0.3548 -0.0546,-0.59 -0.0021,-0.2331 0.0106,-0.4914 0.0359,-0.7706 0.0252,-0.2794 0.0608,-0.565 0.1069,-0.859 0.0463,-0.2939 0.0988,-0.5796 0.1597,-0.8587 0.0609,-0.2774 0.1239,-0.5336 0.1931,-0.7646 0.1155,-0.4116 0.1555,-0.7602 0.1199,-1.0456 -0.0359,-0.2877 -0.1345,-0.5125 -0.2943,-0.6764 -0.1594,-0.1615 -0.3652,-0.2646 -0.6215,-0.3043 -0.2541,-0.0398 -0.5439,-0.0169 -0.8652,0.067 -0.3213,0.082 -0.6613,0.229 -1.0227,0.4348 -0.1595,0.0968 -0.3379,0.2352 -0.5333,0.418 -0.1975,0.1827 -0.3967,0.3989 -0.6004,0.6531 0.1719,-0.6848 0.3673,-1.3713 0.59,-2.0602 0.2203,-0.6907 0.462,-1.3648 0.7201,-2.0222 0.2648,-0.6699 0.3676,-1.2011 0.3088,-1.5898 -0.0608,-0.3884 -0.2857,-0.6194 -0.6761,-0.6886 -0.3884,-0.0695 -0.9472,0.0377 -1.6739,0.3255 -0.046,0.021 -0.1006,0.1155 -0.1657,0.2856 -0.065,0.1701 -0.1365,0.3946 -0.212,0.674 -0.0778,0.2815 -0.1597,0.5984 -0.2417,0.9535 -0.084,0.3548 -0.1681,0.7266 -0.2497,1.1192 -0.082,0.3926 -0.1618,0.7833 -0.2373,1.1759 -0.0736,0.3928 -0.1428,0.7666 -0.2037,1.1215 -0.0611,0.3569 -0.1113,0.6761 -0.1514,0.9576 -0.0733,0.5018 -0.1384,0.9995 -0.193,1.4951 -0.037,0.3338 -0.0692,0.6569 -0.0959,0.9689 -0.017,0.0292 -0.0341,0.0604 -0.0514,0.0936 z m 9.6767,-0.441 c 0.1282,-0.5734 0.271,-1.0624 0.4305,-1.4636 0.1574,-0.4032 0.3171,-0.7162 0.4787,-0.9407 0.1598,-0.2227 0.3088,-0.3549 0.4433,-0.3949 0.1342,-0.0398 0.2414,0.0148 0.3233,0.166 0.063,0.1196 0.0883,0.2877 0.0734,0.5039 -0.0124,0.2164 -0.0629,0.462 -0.149,0.7328 -0.0862,0.2732 -0.2079,0.5544 -0.3653,0.84 -0.1556,0.2878 -0.3465,0.5607 -0.5692,0.8211 -0.2227,0.2625 -0.4787,0.4873 -0.7664,0.6805 -0.0063,-0.1386 0,-0.2877 0.0166,-0.4453 0.019,-0.1574 0.0463,-0.3234 0.0841,-0.4998 z m 9.6012,0.2898 c -0.1155,0.5209 -0.2815,0.9304 -0.4936,1.2284 -0.2141,0.2961 -0.4578,0.4977 -0.7349,0.6029 -0.2752,0.1048 -0.5671,0.13 -0.8736,0.0777 -0.3046,-0.0546 -0.6069,-0.1701 -0.9092,-0.3486 -0.3005,-0.1808 -0.5817,-0.4053 -0.8442,-0.6784 0.1259,-0.2498 0.2393,-0.5123 0.3421,-0.7834 0.103,-0.2729 0.1995,-0.5627 0.2856,-0.8692 0.0861,-0.3067 0.166,-0.6384 0.2417,-0.9932 0.2602,0.0315 0.5227,0.0544 0.7875,0.0692 0.2666,0.0125 0.5206,0.0315 0.7685,0.0546 0.2456,0.0232 0.4703,0.063 0.6741,0.1197 0.2036,0.0567 0.3738,0.1449 0.5101,0.2625 0.1386,0.1176 0.2289,0.277 0.2773,0.4808 0.0463,0.2036 0.0357,0.462 -0.0314,0.777 z m 12.02,-6.4005 c -0.0798,-0.1912 -0.168,-0.3361 -0.2687,-0.4326 -0.0989,-0.0945 -0.2058,-0.1556 -0.3213,-0.1785 -0.1134,-0.0231 -0.2289,-0.0211 -0.3507,0.0042 -0.1196,0.0273 -0.2372,0.0671 -0.3572,0.1176 -0.1175,0.0525 -0.2307,0.1071 -0.34,0.1615 -0.3614,0.1743 -0.6384,0.3527 -0.8338,0.5377 -0.193,0.1848 -0.3064,0.3653 -0.3359,0.5417 -0.0314,0.1787 0.0188,0.3423 0.1491,0.4956 0.1595,0.1808 0.3465,0.3109 0.5627,0.3907 0.2141,0.0775 0.4389,0.1114 0.672,0.0986 0.2331,-0.0125 0.4558,-0.0629 0.6658,-0.1532 0.212,-0.0903 0.3904,-0.212 0.5397,-0.3676 0.147,-0.1532 0.2457,-0.3338 0.292,-0.5395 0.046,-0.2059 0.0208,-0.4306 -0.0737,-0.6762 z m 4.5233,2.4441 c -0.1975,0.0947 -0.4053,0.2438 -0.6278,0.4516 -0.2226,0.2059 -0.4474,0.4558 -0.6743,0.7477 -0.2286,0.294 -0.4493,0.6132 -0.6634,0.9618 -0.2143,0.3484 -0.4115,0.7118 -0.5923,1.0898 0.1155,-0.4032 0.2479,-0.7979 0.4011,-1.1845 0.1512,-0.3863 0.3172,-0.7684 0.4936,-1.1465 0.1469,-0.3361 0.212,-0.6256 0.1995,-0.8715 -0.0148,-0.2476 -0.0986,-0.443 -0.2521,-0.5879 -0.1553,-0.145 -0.3694,-0.2331 -0.6447,-0.2646 -0.277,-0.0315 -0.6027,0.0021 -0.9784,0.0986 -0.0484,0.0148 -0.1113,0.0902 -0.185,0.2289 -0.0733,0.1387 -0.1532,0.3255 -0.2372,0.5628 -0.0861,0.2396 -0.1702,0.5145 -0.2542,0.8296 -0.0838,0.315 -0.1595,0.655 -0.2287,1.0226 -0.0694,0.3673 -0.1241,0.7518 -0.166,1.1486 -0.0839,0.8044 -0.1428,1.4889 -0.1763,2.0602 -0.0166,0.3 -0.0262,0.5656 -0.0285,0.7969 -0.123,0.0944 -0.2463,0.1576 -0.3706,0.188 -0.1722,0.0439 -0.3317,0.0439 -0.4807,-0.0021 -0.1491,-0.0463 -0.2753,-0.1176 -0.376,-0.2206 -0.1009,-0.1007 -0.166,-0.2141 -0.1933,-0.3403 -0.0439,-0.1951 -0.0588,-0.4555 -0.0439,-0.7854 0.0145,-0.3275 0.0733,-0.737 0.1763,-1.2305 0.1028,-0.4935 0.2646,-1.0856 0.485,-1.7766 0.1618,-0.5102 0.231,-0.9324 0.2057,-1.264 -0.0249,-0.3317 -0.1321,-0.5669 -0.3192,-0.7098 -0.1868,-0.1407 -0.4451,-0.1829 -0.7726,-0.1261 -0.3275,0.0588 -0.7118,0.2206 -1.1551,0.4872 -0.0671,0.0463 -0.1238,0.1325 -0.1636,0.2604 -0.0422,0.1259 -0.0778,0.2815 -0.1051,0.4641 -0.0294,0.1827 -0.0568,0.3822 -0.0841,0.5963 -0.0273,0.2165 -0.0608,0.4347 -0.1006,0.6574 -0.1408,0.7266 -0.2373,1.3944 -0.2857,1.999 -0.0504,0.6049 -0.0356,1.134 0.0443,1.5877 0.0158,0.0924 0.0352,0.1809 0.0581,0.2656 -0.0185,0.0172 -0.0372,0.0351 -0.0561,0.0537 -0.2037,0.2016 -0.4011,0.3171 -0.5879,0.3506 -0.1892,0.0315 -0.3551,-0.021 -0.4956,-0.1555 -0.1408,-0.1343 -0.2417,-0.3507 -0.3026,-0.6489 -0.0356,-0.1594 -0.0525,-0.3548 -0.0546,-0.59 -0.0021,-0.2331 0.0107,-0.4914 0.0359,-0.7706 0.0253,-0.2794 0.0609,-0.565 0.1069,-0.859 0.0463,-0.2939 0.0989,-0.5796 0.1598,-0.8587 0.0608,-0.2774 0.1238,-0.5336 0.193,-0.7646 0.1155,-0.4116 0.1556,-0.7602 0.1199,-1.0456 -0.0359,-0.2877 -0.1345,-0.5125 -0.2942,-0.6764 -0.1595,-0.1615 -0.3653,-0.2646 -0.6215,-0.3043 -0.2542,-0.0398 -0.544,-0.0169 -0.8653,0.067 -0.3213,0.082 -0.6613,0.229 -1.0227,0.4348 -0.1594,0.0968 -0.3379,0.2352 -0.5332,0.418 -0.1975,0.1827 -0.3968,0.3989 -0.6005,0.6531 0.172,-0.6848 0.3674,-1.3713 0.59,-2.0602 0.2204,-0.6907 0.4621,-1.3648 0.7201,-2.0222 0.2649,-0.6699 0.3676,-1.2011 0.3088,-1.5898 -0.0608,-0.3884 -0.2856,-0.6194 -0.6761,-0.6886 -0.3884,-0.0695 -0.9472,0.0377 -1.6738,0.3255 -0.046,0.021 -0.1007,0.1155 -0.1657,0.2856 -0.0651,0.1701 -0.1366,0.3946 -0.212,0.674 -0.0778,0.2815 -0.1598,0.5984 -0.2417,0.9535 -0.0841,0.3548 -0.1681,0.7266 -0.2498,1.1192 -0.0819,0.3926 -0.1618,0.7833 -0.2373,1.1759 -0.0736,0.3928 -0.1428,0.7666 -0.2036,1.1215 -0.0612,0.3569 -0.1114,0.6761 -0.1515,0.9576 -0.0733,0.5018 -0.1384,0.9995 -0.193,1.4951 -0.0546,0.4935 -0.0988,0.9639 -0.1303,1.409 -0.0336,0.4472 -0.0526,0.8483 -0.0567,1.2053 -0.0042,0.3571 0.0065,0.6491 0.0314,0.878 0.0274,0.2287 0.0716,0.3715 0.1345,0.4303 0.1681,0.1324 0.3403,0.2206 0.5167,0.2646 0.1764,0.0463 0.3444,0.0608 0.5081,0.0421 0.1618,-0.019 0.3046,-0.0567 0.4305,-0.1134 0.126,-0.0588 0.2228,-0.1259 0.2899,-0.2016 0.0671,-0.0757 0.0944,-0.1491 0.0819,-0.2183 -0.0505,-0.2583 -0.0778,-0.563 -0.0819,-0.9137 -0.0042,-0.3506 0.0145,-0.7391 0.0546,-1.1634 0.0377,-0.424 0.0986,-0.8735 0.1784,-1.3501 0.0945,-0.2415 0.2037,-0.4725 0.3296,-0.6889 0.1239,-0.2162 0.2501,-0.4051 0.3739,-0.5627 0.1259,-0.1575 0.2352,-0.2709 0.3296,-0.3359 0.1134,-0.0861 0.2144,-0.122 0.3005,-0.1114 0.0861,0.0105 0.1532,0.0883 0.2013,0.2332 0.0464,0.1469 0.0716,0.3821 0.0716,0.7034 0.0021,0.3234 -0.0252,0.7539 -0.082,1.2914 -0.0712,0.7121 -0.0546,1.3062 0.0526,1.7849 0.1051,0.4769 0.296,0.8484 0.571,1.1132 0.2773,0.2667 0.6364,0.4388 1.0773,0.5164 0.315,0.0567 0.6132,0.0653 0.8947,0.0232 0.2815,-0.0419 0.5419,-0.1218 0.7812,-0.2394 0.2313,-0.1156 0.439,-0.2548 0.6233,-0.4213 0.0452,0.067 0.0943,0.1298 0.1473,0.1882 0.2435,0.2667 0.5859,0.4241 1.031,0.4745 0.2438,0.0274 0.4893,0.019 0.7351,-0.021 0.2457,-0.0419 0.485,-0.107 0.716,-0.1972 0.2213,-0.0845 0.4251,-0.1845 0.6154,-0.2979 0.0255,0.1533 0.0635,0.2492 0.1133,0.2893 0.1282,0.1051 0.2753,0.1764 0.4389,0.2143 0.1639,0.0399 0.3296,0.0526 0.4976,0.0399 0.1681,-0.0105 0.3192,-0.0399 0.4579,-0.0882 0.1387,-0.0464 0.2476,-0.1051 0.3255,-0.1722 0.0778,-0.0672 0.1092,-0.1366 0.0944,-0.2079 -0.0063,-0.0692 -0.0187,-0.1387 -0.0336,-0.2079 -0.0145,-0.0692 -0.0293,-0.1387 -0.0419,-0.2078 0,-0.038 0,-0.0758 0,-0.1134 -0.0127,-0.3151 0.0167,-0.6468 0.0882,-0.9933 0.0734,-0.3445 0.1764,-0.6889 0.3086,-1.0313 0.1324,-0.3421 0.2836,-0.6654 0.4516,-0.968 0.1701,-0.3023 0.3444,-0.5669 0.5229,-0.7958 0.1806,-0.2289 0.3528,-0.4012 0.5188,-0.5208 0.0713,-0.0505 0.1405,-0.0734 0.212,-0.0671 0.0692,0.0062 0.128,0.0397 0.1763,0.1048 0.0484,0.0653 0.0755,0.1597 0.082,0.2856 0.0042,0.1238 -0.021,0.2815 -0.0799,0.4704 -0.0124,0.0525 0.0253,0.0947 0.1093,0.1303 0.084,0.0357 0.1995,0.0547 0.3465,0.0609 0.1491,0.0062 0.3107,-0.0104 0.4891,-0.0484 0.1785,-0.0357 0.3551,-0.1027 0.5315,-0.1951 0.1743,-0.0926 0.3338,-0.2206 0.4724,-0.3824 0.1408,-0.1636 0.2477,-0.3674 0.3193,-0.6111 0.1089,-0.3863 0.1407,-0.7243 0.0965,-1.0141 -0.0419,-0.2898 -0.1491,-0.5167 -0.3193,-0.6847 -0.1722,-0.1658 -0.3925,-0.2563 -0.6678,-0.2708 -0.2728,-0.017 -0.5858,0.0566 -0.9365,0.2182 z m 7.8371,4.3974 c -0.1597,0.2289 -0.3507,0.4368 -0.5734,0.628 -0.2203,0.1889 -0.4579,0.3548 -0.7118,0.4935 -0.2541,0.1405 -0.5104,0.2477 -0.7687,0.3234 -0.2581,0.0754 -0.5018,0.1113 -0.735,0.109 -0.231,-0.0042 -0.4346,-0.0523 -0.611,-0.1447 -0.1785,-0.0947 -0.3128,-0.2417 -0.4054,-0.4391 0.0128,-0.0062 0.0232,-0.0104 0.0295,-0.0125 0.0085,-0.0021 0.0147,-0.0063 0.021,-0.0125 0.4472,-0.1722 0.8632,-0.3928 1.2474,-0.6616 0.3822,-0.2687 0.7183,-0.5648 1.0102,-0.8904 0.2919,-0.3255 0.525,-0.6613 0.697,-1.0037 0.1742,-0.3445 0.2773,-0.6782 0.3067,-1.0016 0.0315,-0.3213 -0.0232,-0.6153 -0.1618,-0.8778 -0.1405,-0.2541 -0.3317,-0.4432 -0.5711,-0.5671 -0.2414,-0.1218 -0.5125,-0.1868 -0.8168,-0.1954 -0.3026,-0.0062 -0.6218,0.038 -0.9535,0.1345 -0.3338,0.0945 -0.6636,0.2352 -0.9912,0.4178 -0.3275,0.1829 -0.6363,0.4033 -0.9217,0.6595 -0.2877,0.2563 -0.5378,0.5419 -0.7519,0.8567 -0.2122,0.3151 -0.3717,0.6533 -0.4747,1.0123 -0.1616,0.5816 -0.2331,1.1087 -0.2121,1.5853 0.0211,0.4769 0.1239,0.8905 0.3047,1.2412 0.1826,0.3528 0.4347,0.6343 0.756,0.8421 0.3213,0.21 0.7035,0.3401 1.1423,0.3884 0.2477,0.0253 0.5164,0.0128 0.8062,-0.0398 0.2877,-0.0525 0.5859,-0.1366 0.8905,-0.2521 0.3023,-0.1176 0.6005,-0.2562 0.8947,-0.4219 0.2919,-0.1639 0.5648,-0.3445 0.819,-0.544 0.2559,-0.1975 0.4766,-0.4053 0.6678,-0.6215 0.1889,-0.2165 0.3338,-0.4327 0.4324,-0.6532 0.1071,-0.2456 0.1555,-0.4303 0.1469,-0.5544 -0.0103,-0.1218 -0.0608,-0.1702 -0.1553,-0.1428 -0.0923,0.0252 -0.212,0.1407 -0.3569,0.3444 z m -3.8682,-0.7308 c 0.1282,-0.5734 0.271,-1.0624 0.4305,-1.4636 0.1574,-0.4032 0.3171,-0.7162 0.4787,-0.9407 0.1598,-0.2227 0.3088,-0.3549 0.4433,-0.3949 0.1342,-0.0398 0.2415,0.0148 0.3234,0.166 0.063,0.1196 0.0882,0.2877 0.0733,0.5039 -0.0124,0.2164 -0.0629,0.462 -0.149,0.7328 -0.0861,0.2732 -0.2079,0.5544 -0.3652,0.84 -0.1557,0.2878 -0.3466,0.5607 -0.5693,0.8211 -0.2227,0.2625 -0.4786,0.4873 -0.7664,0.6805 -0.0063,-0.1386 0,-0.2877 0.0166,-0.4453 0.019,-0.1574 0.0463,-0.3234 0.0841,-0.4998 z"
       id="path4031"
       inkscape:connector-curvature="0"
       style="fill:#d9d9d9;fill-rule:nonzero" /><path
       class="fil12"
       d="m 98.4762,51.317 c 0.0861,-0.7981 0.208,-1.5081 0.3698,-2.1293 0.1618,-0.6195 0.3464,-1.1552 0.5562,-1.6046 0.2081,-0.4491 0.4266,-0.8147 0.6554,-1.0982 0.2288,-0.2834 0.4535,-0.4871 0.672,-0.6111 0.2205,-0.1238 0.4221,-0.1701 0.6067,-0.1383 0.1956,0.0356 0.3508,0.1154 0.4686,0.2371 0.1176,0.1217 0.2057,0.2707 0.2624,0.4494 0.0588,0.1763 0.0944,0.3674 0.109,0.5711 0.0148,0.2059 0.0189,0.4075 0.009,0.609 -0.0107,0.2016 -0.0253,0.3865 -0.0422,0.5545 -0.019,0.1697 -0.0315,0.3086 -0.0398,0.4158 -0.009,0.1071 -0.004,0.1701 0.0146,0.1867 0.2395,0.1763 0.4873,0.2938 0.7435,0.355 0.2541,0.0588 0.4978,0.0588 0.7328,0 0.2333,-0.0591 0.439,-0.1787 0.6153,-0.3592 0.1766,-0.1804 0.3046,-0.422 0.3886,-0.7266 0.0819,-0.3024 0.1009,-0.6678 0.0525,-1.0961 -0.0232,-0.1891 -0.084,-0.3844 -0.1846,-0.5838 -0.0989,-0.1995 -0.2312,-0.3948 -0.3972,-0.5815 -0.1659,-0.1893 -0.3609,-0.3573 -0.5838,-0.5084 -0.2226,-0.149 -0.4681,-0.2686 -0.7391,-0.3571 -0.2686,-0.0902 -0.5586,-0.1344 -0.8672,-0.1365 -0.458,0 -0.9175,0.0608 -1.3817,0.1849 -0.4622,0.1241 -0.9136,0.3128 -1.3547,0.5648 -0.441,0.2523 -0.8566,0.5714 -1.2496,0.9537 -0.3923,0.3841 -0.7473,0.8355 -1.0643,1.3564 -0.3173,0.5186 -0.5818,1.1086 -0.7979,1.7661 -0.2146,0.6592 -0.3656,1.3899 -0.4517,2.1922 -0.0365,0.347 -0.0502,0.6901 -0.041,1.0288 2.7132,0 2.6998,0.6767 2.9388,-1.4948 z m -9.5734,0.905 c 0.1573,-0.4034 0.317,-0.7162 0.4784,-0.9406 0.1597,-0.2229 0.309,-0.355 0.4435,-0.395 0.1341,-0.0398 0.2413,0.0148 0.3232,0.1659 0.0629,0.1196 0.0882,0.2879 0.0733,0.504 -0.0125,0.2163 -0.0629,0.4621 -0.149,0.7328 -0.054,0.1713 -0.1217,0.3458 -0.2039,0.5227 1.1831,-0.0042 1.8551,0.3502 1.9786,-1.0077 0.0314,-0.3212 -0.0232,-0.6153 -0.1618,-0.8777 -0.1407,-0.2541 -0.3318,-0.4434 -0.5711,-0.5672 -0.2416,-0.1217 -0.5126,-0.1867 -0.8171,-0.1953 -0.3025,-0.0062 -0.6215,0.038 -0.9534,0.1345 -0.3336,0.0944 -0.6636,0.2353 -0.991,0.4179 -0.3277,0.1828 -0.6364,0.4031 -0.9219,0.6595 -0.2876,0.2561 -0.5376,0.5417 -0.7518,0.8566 -0.125,0.1852 -0.2316,0.3787 -0.3191,0.5794 1.1715,0 2.1551,0.3852 2.5431,-0.5898 z m -4.3997,-2.2029 c -0.1974,0.0946 -0.4051,0.2436 -0.6277,0.4514 -0.2227,0.206 -0.4473,0.4559 -0.6744,0.7477 -0.2286,0.2941 -0.4491,0.6132 -0.6634,0.962 -1.1139,1.8067 0.9362,-0.0149 1.1341,-0.1576 0.0713,-0.0505 0.1404,-0.0737 0.212,-0.0671 0.0691,0.0062 0.1282,0.0397 0.1766,0.1047 0.0483,0.0653 0.0754,0.1597 0.0819,0.2856 0.0041,0.1229 -0.0211,0.279 -0.0787,0.466 l 1.379,0 0.0962,-0.0478 c 0.1742,-0.0926 0.3336,-0.2208 0.4722,-0.3826 0.141,-0.1635 0.2479,-0.3672 0.3194,-0.6111 0.1089,-0.3862 0.1407,-0.7243 0.0965,-1.014 -0.0419,-0.2899 -0.149,-0.5167 -0.3191,-0.6847 -0.1725,-0.1656 -0.3927,-0.2561 -0.6678,-0.271 -0.2731,-0.0169 -0.586,0.057 -0.9368,0.2185 z m -2.1566,2.0664 c 0.151,-0.3865 0.3173,-0.7685 0.4936,-1.1466 0.1469,-0.336 0.2119,-0.6257 0.1994,-0.8715 -0.0148,-0.2478 -0.0985,-0.4431 -0.252,-0.5879 -0.1552,-0.1449 -0.3695,-0.233 -0.6446,-0.2645 -0.2773,-0.0315 -0.6029,0.0021 -0.9786,0.0985 -0.0484,0.0149 -0.1113,0.0903 -0.185,0.2289 -0.0733,0.1386 -0.1531,0.3256 -0.2371,0.5627 -0.0861,0.2396 -0.1701,0.5147 -0.2541,0.8296 -0.084,0.315 -0.1597,0.6551 -0.2288,1.0229 -0.2609,1.3778 1.6096,1.3332 2.0872,0.1279 z m -3.2611,-0.29 c 0.1617,-0.5099 0.2309,-0.9323 0.2057,-1.2641 -0.025,-0.3316 -0.1321,-0.5667 -0.3194,-0.7097 -0.1867,-0.1407 -0.4449,-0.1829 -0.7726,-0.1262 -0.3274,0.0588 -0.7118,0.2209 -1.1549,0.4874 -0.0671,0.0463 -0.1241,0.1324 -0.1638,0.2603 -0.0422,0.1262 -0.0778,0.2817 -0.1051,0.4642 -0.0294,0.1826 -0.0567,0.3823 -0.084,0.5963 -0.0273,0.2164 -0.0609,0.4349 -0.1006,0.6575 -0.1698,0.8767 1.8954,1.5125 2.4947,-0.3657 z M 79.98,47.5748 c -0.0799,-0.1911 -0.168,-0.336 -0.2689,-0.4324 -0.0989,-0.0947 -0.2057,-0.1559 -0.3212,-0.1787 -0.1134,-0.0232 -0.2288,-0.0211 -0.3508,0.0041 -0.1196,0.0273 -0.2372,0.0674 -0.3571,0.1179 -0.1175,0.0525 -0.2306,0.1071 -0.3401,0.1614 -0.3613,0.1743 -0.6382,0.3526 -0.8338,0.5379 -0.1929,0.1846 -0.3063,0.365 -0.3357,0.5413 -0.0314,0.179 0.0187,0.3426 0.149,0.4957 0.1594,0.1808 0.3464,0.3111 0.5628,0.3909 0.214,0.0775 0.4387,0.1113 0.672,0.0986 0.233,-0.0125 0.4556,-0.063 0.6657,-0.1532 0.2119,-0.0905 0.3903,-0.2122 0.5396,-0.3677 0.1472,-0.1532 0.2458,-0.3337 0.2921,-0.5397 0.046,-0.2056 0.0208,-0.4303 -0.0736,-0.6761 z m -4.5739,4.1955 c 0.1154,-0.4114 0.1555,-0.7602 0.1199,-1.0454 -0.0359,-0.2879 -0.1345,-0.5126 -0.2941,-0.6765 -0.1594,-0.1614 -0.3654,-0.2647 -0.6216,-0.3045 -0.254,-0.0398 -0.544,-0.0169 -0.8652,0.0674 -0.3214,0.0819 -0.6613,0.2288 -1.0228,0.4345 -0.1594,0.0968 -0.3378,0.2351 -0.5331,0.4182 -0.1976,0.1826 -0.3968,0.3987 -0.6004,0.653 0.1718,-0.6847 0.3671,-1.3712 0.59,-2.0602 0.2203,-0.6906 0.4619,-1.3647 0.7201,-2.0221 0.2648,-0.6699 0.3675,-1.2012 0.3087,-1.5898 -0.0609,-0.3885 -0.2855,-0.6194 -0.6761,-0.6886 -0.3883,-0.0694 -0.9472,0.0377 -1.6738,0.3253 -0.046,0.0211 -0.1006,0.1155 -0.1659,0.2856 -0.065,0.1703 -0.1365,0.3947 -0.2119,0.674 -0.0778,0.2817 -0.1597,0.5984 -0.2416,0.9537 -0.084,0.3547 -0.168,0.7266 -0.2499,1.119 -0.082,0.3927 -0.1618,0.7833 -0.2372,1.1759 -0.0736,0.393 -0.1428,0.7667 -0.2036,1.1217 -0.0612,0.3568 -0.1113,0.6761 -0.1514,0.9575 -0.3306,2.2647 2.0884,1.0846 2.0937,1.0751 0.1238,-0.2164 0.25,-0.4052 0.3737,-0.5628 0.1259,-0.1576 0.2354,-0.271 0.3298,-0.336 0.1134,-0.086 0.2143,-0.122 0.3004,-0.1113 0.086,0.0104 0.1531,0.0882 0.2012,0.233 0.0463,0.1472 0.0715,0.3823 0.0715,0.7035 6e-4,0.0748 -6e-4,0.1552 -0.0032,0.2413 1.7886,0 2.1308,0.6702 2.6428,-1.0415 z m -9.645,0.5105 c 0.2669,0.0124 0.5207,0.0314 0.7688,0.0546 0.2455,0.0231 0.4701,0.0629 0.6741,0.1196 0.2036,0.0567 0.3736,0.1449 0.5099,0.2627 0.1825,0.2078 0.2508,0.3737 0.3036,0.6352 0.0276,0.1377 -0.024,0.3986 -0.0341,0.5158 -0.1045,1.1962 0.6301,1.2374 0.8233,0.2057 0.0262,-0.1395 0.139,-0.6334 0.0861,-1.2626 -0.0225,-0.2645 -0.0718,-0.5147 -0.1475,-0.7495 -0.1071,-0.3277 -0.2564,-0.6108 -0.4517,-0.8569 -0.195,-0.2434 -0.4263,-0.4324 -0.6949,-0.5666 -0.2668,-0.1347 -0.5651,-0.1997 -0.8925,-0.1997 -0.3298,0.002 -0.6782,0.084 -1.0522,0.2478 -0.1532,0.0694 -0.2499,0.0715 -0.2918,0.0086 -0.0421,-0.0632 -0.0421,-0.1745 0,-0.3363 0.0398,-0.1615 0.1093,-0.3547 0.2036,-0.5797 0.149,-0.3336 0.2164,-0.6191 0.2016,-0.8545 -0.0125,-0.2351 -0.0989,-0.4155 -0.2541,-0.5461 -0.1573,-0.128 -0.3737,-0.2016 -0.6488,-0.2161 -0.2752,-0.0169 -0.6008,0.0273 -0.9745,0.13 -0.0501,0.0128 -0.1175,0.065 -0.2036,0.1576 -0.0863,0.0905 -0.1766,0.2143 -0.2689,0.3695 -0.0923,0.1576 -0.1742,0.3384 -0.2434,0.5462 -0.0715,0.2098 -0.1154,0.4366 -0.1324,0.6868 -0.0187,0.2475 0.0042,0.5102 0.0674,0.7854 0.0567,0.2306 0.1404,0.4241 0.2559,0.5859 0.1154,0.1594 0.254,0.2917 0.4161,0.3944 0.1594,0.103 0.3336,0.1829 0.5248,0.2416 0.357,0.1265 0.6135,0.1493 1.4552,0.2206 z M 58.7893,52.222 c 0.1573,-0.4034 0.317,-0.7162 0.4785,-0.9406 0.16,-0.2229 0.309,-0.355 0.4434,-0.395 0.1342,-0.0398 0.2413,0.0148 0.3232,0.1659 0.063,0.1196 0.0882,0.2879 0.0736,0.504 -0.0145,0.2457 0.4634,2.9598 1.3185,1.2495 0.1745,-0.3446 0.2775,-0.6782 0.3069,-1.0017 0.0315,-0.3212 -0.0232,-0.6153 -0.1618,-0.8777 -0.1407,-0.2541 -0.3318,-0.4434 -0.571,-0.5672 -0.2416,-0.1217 -0.5126,-0.1867 -0.8169,-0.1953 -0.3027,-0.0062 -0.6218,0.038 -0.9536,0.1345 -0.3336,0.0944 -0.6637,0.2353 -0.9911,0.4179 -0.3277,0.1828 -0.6364,0.4031 -0.9219,0.6595 -0.2876,0.2561 -0.5375,0.5417 -0.7518,0.8566 -0.125,0.1852 -0.2315,0.3787 -0.3191,0.5794 1.1715,0 2.1552,0.3852 2.5431,-0.5898 z m -3.6371,-1.4971 c -0.0199,-0.2897 -0.1345,-0.5126 -0.2942,-0.6765 -0.1594,-0.1614 -0.3654,-0.2647 -0.6215,-0.3045 -0.2541,-0.0398 -0.5441,-0.0169 -0.8652,0.0674 -0.3215,0.0819 -0.6613,0.2288 -1.0228,0.4345 -0.1594,0.0968 -0.3378,0.2351 -0.5331,0.4182 -0.1977,0.1826 -0.3969,0.3987 -0.6005,0.653 0.1719,-0.6847 0.3672,-1.3712 0.5901,-2.0602 0.2202,-0.6906 0.4618,-1.3647 0.7201,-2.0221 0.2647,-0.6699 0.3674,-1.2012 0.3087,-1.5898 -0.0609,-0.3885 -0.2856,-0.6194 -0.6762,-0.6886 -0.3882,-0.0694 -0.9471,0.0377 -1.6737,0.3253 -0.046,0.0211 -0.1006,0.1155 -0.1659,0.2856 -0.065,0.1703 -0.1366,0.3947 -0.212,0.674 -0.0777,0.2817 -0.1596,0.5984 -0.2416,0.9537 -0.084,0.3547 -0.168,0.7266 -0.2499,1.119 -0.0819,0.3927 -0.1617,0.7833 -0.2371,1.1759 -0.0736,0.393 -0.1428,0.7667 -0.2036,1.1217 -0.0612,0.3568 -0.1114,0.6761 -0.1514,0.9575 -0.0609,0.4167 -0.1164,0.8305 -0.1645,1.2428 0.1588,-0.2553 0.2307,-1.4811 2.2582,-0.1677 0.1238,-0.2164 0.2499,-0.4052 0.3737,-0.5628 0.1258,-0.1576 0.2354,-0.271 0.3297,-0.336 0.1134,-0.086 0.2143,-0.122 0.3004,-0.1113 0.0431,0.0051 1.3897,-0.1232 1.4568,1.0632 0.0205,0.3657 1.1353,0.3075 1.3264,-0.4316 0.1004,-0.3879 0.2939,-0.8871 0.2491,-1.5407 z M 42.9113,51.317 c 0.0861,-0.7981 0.2081,-1.5081 0.3698,-2.1293 0.1618,-0.6195 0.3464,-1.1552 0.5562,-1.6046 0.2081,-0.4491 0.4266,-0.8147 0.6554,-1.0982 0.2289,-0.2834 0.4535,-0.4871 0.672,-0.6111 0.2205,-0.1238 0.4221,-0.1701 0.6067,-0.1383 0.1953,0.0356 0.3508,0.1154 0.4687,0.2371 0.1175,0.1217 0.2056,0.2707 0.2623,0.4494 0.0588,0.1763 0.0944,0.3674 0.109,0.5711 0.0148,0.2059 0.019,0.4075 0.0086,0.609 -0.0107,0.2016 -0.0253,0.3865 -0.0422,0.5545 -0.019,0.1697 -0.0314,0.3086 -0.0397,0.4158 -0.0087,0.1071 -0.0042,0.1701 0.0145,0.1867 0.2395,0.1763 0.4874,0.2938 0.7435,0.355 0.2541,0.0588 0.4978,0.0588 0.7328,0 0.2333,-0.0591 0.439,-0.1787 0.6153,-0.3592 0.1763,-0.1804 0.3046,-0.422 0.3886,-0.7266 0.0819,-0.3024 0.1009,-0.6678 0.0525,-1.0961 -0.0232,-0.1891 -0.084,-0.3844 -0.1846,-0.5838 -0.0992,-0.1995 -0.2312,-0.3948 -0.3972,-0.5815 -0.1659,-0.1893 -0.3612,-0.3573 -0.5838,-0.5084 -0.2226,-0.149 -0.4684,-0.2686 -0.739,-0.3571 -0.2687,-0.0902 -0.5587,-0.1344 -0.8673,-0.1365 -0.458,0 -0.9175,0.0608 -1.3817,0.1849 -0.4621,0.1241 -0.9136,0.3128 -1.3547,0.5648 -0.441,0.2523 -0.8566,0.5714 -1.2495,0.9537 -0.3924,0.3841 -0.7474,0.8355 -1.0644,1.3564 -0.3173,0.5186 -0.5818,1.1086 -0.7981,1.7661 -0.2143,0.6592 -0.3654,1.3899 -0.4515,2.1922 -0.0365,0.347 -0.0502,0.6901 -0.041,1.0288 1.6278,-2.9266 1.7788,-1.8064 2.9388,-1.4948 z m 67.1697,0.466 c 0.1929,-0.691 0.2351,-1.2157 0.1258,-1.5769 -0.1113,-0.3613 -0.3529,-0.5503 -0.7266,-0.5628 -0.374,-0.0128 -0.8566,0.1594 -1.4532,0.5144 -0.0252,0.019 -0.0504,0.0567 -0.0754,0.1092 -0.0252,0.0546 -0.0504,0.1238 -0.0759,0.2057 -0.2393,-0.1155 -0.5123,-0.1701 -0.8169,-0.1638 -0.3042,0.0086 -0.6194,0.0756 -0.9447,0.2039 -0.3277,0.1282 -0.6426,0.317 -0.9492,0.5627 -0.3066,0.2479 -0.5839,0.5524 -0.8276,0.9178 -0.1665,0.246 -0.3086,0.5191 -0.4277,0.8186 1.4951,-0.2455 1.7343,-0.4577 2.6812,-1.1736 0.2475,-0.187 0.3778,-0.4286 0.5752,-0.542 0.1953,-0.111 0.3864,-0.1383 0.571,-0.0816 -0.0397,0.2098 -0.0795,0.439 -0.1154,0.6886 -0.0356,0.2478 -0.0692,0.5019 -0.1006,0.7601 -0.0986,0.8258 2.262,0.3031 2.56,-0.6803 z m 6.4005,-1.6506 c 0.3861,-0.1341 0.6028,-0.3736 0.6467,-0.72 0.0463,-0.3467 -0.0944,-0.7895 -0.42,-1.3336 -0.019,-0.0294 -0.0757,-0.0294 -0.1721,0.0021 -0.0947,0.0314 -0.2268,0.0819 -0.3972,0.1511 -0.168,0.0694 -0.3737,0.1448 -0.6153,0.227 -0.2433,0.084 -0.5185,0.1639 -0.8313,0.2372 0.0187,-0.0377 0.0377,-0.0757 0.0543,-0.1113 0.019,-0.0377 0.0338,-0.0713 0.0463,-0.1027 0.2983,-0.6658 0.4265,-1.1971 0.3844,-1.5921 -0.0419,-0.3924 -0.2562,-0.6323 -0.6426,-0.718 -0.3865,-0.0861 -0.9469,-0.0024 -1.6821,0.2561 -0.0439,0.019 -0.0923,0.0947 -0.1428,0.233 -0.0504,0.1366 -0.105,0.3191 -0.1596,0.5462 -0.0546,0.2288 -0.1113,0.4891 -0.168,0.7812 -0.0588,0.2938 -0.1155,0.6049 -0.1722,0.9343 -0.1994,-0.0041 -0.3802,-0.0107 -0.5417,-0.0148 -0.1617,-0.0062 -0.29,-0.0104 -0.3864,-0.0125 -0.0968,-0.0021 -0.1493,-0.0021 -0.1555,0.0021 -0.0754,0.0923 -0.1301,0.1912 -0.168,0.2941 -0.0377,0.103 -0.0377,0.2078 0,0.3191 0.04,0.1113 0.1386,0.2268 0.2941,0.3446 0.0882,0.0692 0.1974,0.13 0.3277,0.1826 0.13,0.0525 0.2769,0.1009 0.4407,0.1448 -0.0376,0.252 -0.0715,0.4978 -0.1029,0.7328 -0.0315,0.2372 -0.0609,0.4643 -0.0861,0.6783 -0.2431,1.9972 1.6553,1.7618 1.9281,0.3214 0.0923,-0.4998 0.2098,-1.0017 0.3526,-1.5057 0.3087,0 0.6111,-0.0107 0.9053,-0.0336 0.2938,-0.021 0.5669,-0.0525 0.8189,-0.0923 0.2496,-0.0421 0.466,-0.0926 0.6447,-0.1514 z"
       id="path4033"
       inkscape:connector-curvature="0"
       style="fill:#ffffff;fill-rule:nonzero" /><path
       class="fil6"
       d="m 56.1796,34.9373 c 1.7011,-1.1704 2.7134,0.0454 2.7625,-0.3782 0.0176,-0.1576 -0.0286,-0.2719 -0.0902,-0.388 -0.4568,-0.8613 -2.3412,-0.4839 -2.6723,0.7662 z"
       id="path4035"
       inkscape:connector-curvature="0"
       style="fill:#2a1710" /><path
       class="fil5"
       d="m 53.5682,65.7479 c 3.3341,5.5321 14.7336,4.4534 15.7173,3.691 L 68.2661,68.272 c -0.2629,-0.0036 -0.068,-0.8602 -0.3055,-0.8751 -0.9228,-1.7498 -1.0141,-7.3333 -6.8067,-10.3074 -0.8637,-0.4435 -2.8323,-0.9627 -4.6055,-1.4793 -1.6195,-0.4717 -3.6532,-0.6095 -3.795,-0.3297 -2.9699,0.3524 -1.0087,7.4419 0.8148,10.4674 z"
       id="path4039"
       inkscape:connector-curvature="0"
       style="fill:#ffffff" /><path
       class="fil9"
       d="m 37.9244,57.3362 c -1.8374,1.0553 -1.0003,3.5895 3.6668,3.5339 1.699,0.1397 3.2844,0.0514 4.9154,0.2629 1.4806,0.192 3.0802,0.5705 4.5519,1.3829 1.9364,1.0689 1.7311,1.9401 2.5097,3.232 3.3341,5.532 12.4037,3.5837 13.3874,2.8214 l -0.6404,-0.0322 c -0.2629,-0.0037 -0.4089,-0.0011 -0.6464,-0.016 -7.1905,-1.3745 -3.2,-6.4902 -5.9435,-9.8984 -4.7944,-5.9556 -15.547,-2.3434 -20.0148,-1.2337 -0.2255,0.056 -0.3272,-0.4736 -0.5196,-0.4287 -0.6183,0.144 -1.0585,0.2229 -1.2689,0.1904 -0.2133,0.018 0.3366,-0.2259 0.1418,-0.2252 -0.9265,0.003 -0.0097,0.3336 -0.1394,0.4107 z"
       id="path4041"
       inkscape:connector-curvature="0"
       style="fill:#e691d5" /><path
       class="fil10"
       d="m 47.2871,58.5734 c -1.1602,-0.277 -2.7358,0.1248 -3.7625,0.7663 l 0.7463,-0.7837 c -0.4789,-0.1823 -1.7635,0.2485 -2.1185,0.6498 l -0.3509,0.439 -2.228,-1.3124 c 1.4285,2.5958 -0.3331,0.8702 -1.6195,1.1038 l 7.8201,1.3141 c -0.1458,-1.2218 0.7962,-2.0175 1.513,-2.1769 z"
       id="path4043"
       inkscape:connector-curvature="0"
       style="fill:#c64995" /><path
       class="fil5"
       d="m 53.266,66.1478 c 3.3341,5.5321 13.833,3.6395 14.8167,2.8772 -3.8408,-0.1935 -1.2977,-9.2708 -8.8889,-12.3528 -3.8915,-1.5799 -8.3135,5.5174 -5.9278,9.4756 z"
       id="path4045"
       inkscape:connector-curvature="0"
       style="fill:#ffffff" /><path
       class="fil14"
       d="m 53.1724,60.9332 c 0.0497,0.0479 -0.6693,2.3336 -0.628,2.3818 0.4163,0.4857 0.455,0.9961 0.8506,1.7275 0.3314,0.6123 0.5675,1.3881 1.9789,2.4223 3.669,2.9759 9.7265,3.0286 13.6292,2.1301 -6.967,-0.5418 -6.2399,-0.209 -10.6653,-2.7454 -0.6881,-0.3943 -2.2931,-1.8896 -5.1654,-5.9163 z"
       id="path4047"
       inkscape:connector-curvature="0"
       style="fill:#d9d9d9" /><path
       class="fil10"
       d="M 53.1674,61.002 C 52.064,60.2566 41.3173,60.5673 37.7827,59.0157 c -2.4295,-1.0666 1.1663,-2.5935 1.1389,-1.9945 -0.0149,0.3246 -0.0178,-0.2925 -0.1096,-0.5676 -0.0778,-0.2334 -0.0647,-0.5126 -0.0526,-0.6684 0.0209,-0.2694 -0.6239,-0.3355 -1.0838,0.9889 -0.2292,0.6602 0.1965,0.6115 -0.0255,0.7775 -0.9501,0.7103 -1.5228,3.0927 2.3625,2.9415 0.4635,0.0642 0.7329,0.0996 1.2569,0.1802 1.5747,0.2425 3.5356,-0.0995 6.2738,0.4843 2.7201,0.7823 4.1086,1.3568 4.725,1.8286 0.0764,0.0584 0.8341,-2.0472 0.8991,-1.9842 z"
       id="path4049"
       inkscape:connector-curvature="0"
       style="fill:#c64995" /><path
       class="fil0"
       d="m 69.1102,69.5746 c -11.023,2.1195 -18.3729,-3.0809 -15.1536,-10.4261 -1.104,1.4636 -1.347,2.2047 -1.6277,3.7616 -2.1237,-1.1591 -2.3397,-1.2311 -4.7855,-1.7526 -2.7384,-0.5837 -4.6993,-0.2417 -6.2739,-0.4842 -0.524,-0.0806 -0.7934,-0.116 -1.2569,-0.1802 -4.5424,-0.5876 -2.7095,-2.9284 -1.3708,-3.0473 0.2783,-0.0246 0.6478,0.1294 0.91,0.0806 6.9387,-1.2922 9.6851,-3.5981 19.1597,-1.2061 2.4881,0.6281 4.6336,2.0705 6.1026,4.3681 2.633,4.1187 1.6971,6.6477 4.2961,8.8862 z M 38.7549,60.638 c 4.0224,0.6942 9.6651,0.3592 12.2016,2.4443 1.8326,1.5063 2.0328,2.8286 3.2984,4.2184 1.81,1.9876 8.3185,4.1713 15.2729,2.5259 0.2462,-0.0583 -0.2009,-0.6214 0.1482,-0.5477 0.5016,0.1061 0.6961,-0.3707 1.1343,-0.5117 -5.7439,0.5259 -1.6216,-8.9121 -11.146,-12.5144 -4.5958,-1.7382 -10.1768,-1.4901 -14.8985,-0.4373 -1.9274,0.4298 -3.2028,0.8921 -4.5403,1.0586 -0.4754,0.0591 -1.8818,0.0753 -1.9944,-5.1367 -0.0174,-0.804 -7.4492,7.5247 0.5238,8.9006 z"
       id="path4051"
       inkscape:connector-curvature="0"
       style="fill:#710153" /><path
       class="fil15"
       d="m 46.0351,55.8192 c -1.6331,1.9978 -2.244,3.6114 -0.8338,5.0167 -0.5741,-0.0562 -2.5474,-0.0687 -2.8906,-0.0733 -0.004,0 -0.0159,-0.012 -0.019,-0.0144 -4e-4,-3e-4 -10e-4,-8e-4 -0.0014,-10e-4 -0.7779,-0.6017 0.4596,-3.6043 2.2678,-4.5915 0.0035,-0.0019 0.0065,-0.0048 0.0104,-0.0057 0.4966,-0.1159 0.9212,-0.2263 1.4666,-0.3308 z"
       id="path4053"
       inkscape:connector-curvature="0"
       style="fill:#423f99" /><path
       class="fil15"
       d="m 53.1764,55.8194 c -0.0164,0.0125 -0.033,0.0253 -0.0492,0.0377 -2.9496,2.2656 -3.2209,3.9832 -1.6874,6.5742 -1.3977,-0.9727 -2.0043,-0.8879 -3.3826,-1.1674 -0.0519,-0.0106 -0.0471,-0.0013 -0.0902,-0.027 -1.4317,-0.8572 0.4682,-5.0316 3.487,-5.718 0.015,-0.0034 0.0306,-0.0068 0.0457,-0.0101 0.3136,-0.0688 1.6833,0.3055 1.6767,0.3106 z"
       id="path4055"
       inkscape:connector-curvature="0"
       style="fill:#423f99" /><path
       class="fil16"
       d="m 44.4151,59.0857 c -0.7725,0.0428 -1.4226,0.6894 -2.1323,0.8096 -0.0726,0.0123 -0.1548,-0.3325 -0.1197,-0.5135 -0.2329,0.7699 -0.0547,1.2403 0.1483,1.3807 0.8328,0.0303 1.809,0.0045 2.8948,0.0756 -0.2958,-0.3226 -0.9337,-1.1584 -0.7911,-1.7524 z"
       id="path4057"
       inkscape:connector-curvature="0"
       style="fill:#292680" /><path
       class="fil16"
       d="m 50.5256,59.9837 c -0.9654,-0.1975 -1.9599,-0.2579 -3.0107,-0.2541 -0.1545,0.7539 0.0602,1.2171 0.4072,1.5103 6e-4,4e-4 0.0057,8e-4 0.0085,0.0017 0.154,0.0456 2.9873,0.7884 3.5092,1.1897 -0.5169,-0.9089 -0.8858,-1.6546 -0.9142,-2.4476 z"
       id="path4059"
       inkscape:connector-curvature="0"
       style="fill:#292680" /><path
       class="fil5"
       d="m 48.3711,56.5743 c -1.62,-0.1314 -2.4128,0.4037 -2.7152,0.8916 -0.0625,0.1009 1.9638,-1.2671 5.5273,0.1993 0.6257,0.2574 -1.1921,-0.9595 -2.8121,-1.0909 z"
       id="path4061"
       inkscape:connector-curvature="0"
       style="fill:#ffffff" /></g></svg>